<?xml version="1.0" standalone="no"?>
<!DOCTYPE svg PUBLIC "-//W3C//DTD SVG 1.1//EN" "http://www.w3.org/Graphics/SVG/1.1/DTD/svg11.dtd" >
<svg>
<metadata>
Created by FontForge 20090622 at Tue Jun 30 15:58:04 2015
 By deploy user
1970 Albert-Jan Pool, published by Fontshop International for the FontFont library.
</metadata>
<defs>
<font id="DIN-Black" horiz-adv-x="556" >
  <font-face 
    font-family="DIN-Black"
    font-weight="400"
    font-stretch="normal"
    units-per-em="1000"
    panose-1="2 0 10 3 3 0 0 2 0 4"
    ascent="760"
    descent="-240"
    x-height="538"
    cap-height="712"
    bbox="-122 -200 1184 1031"
    underline-thickness="108"
    underline-position="-78"
    unicode-range="U+0020-U+FB02"
  />
<missing-glyph horiz-adv-x="1000" 
 />
    <glyph glyph-name=".notdef" horiz-adv-x="1000" 
 />
    <glyph glyph-name="space" unicode=" " horiz-adv-x="222" 
 />
    <glyph glyph-name="exclam" unicode="!" horiz-adv-x="366" 
d="M119 0v161h168v-161h-168zM262 237h-118l-44 475h206z" />
    <glyph glyph-name="quotedbl" unicode="&#x22;" horiz-adv-x="488" 
d="M57 478v234h147v-234h-147zM284 478v234h147v-234h-147z" />
    <glyph glyph-name="numbersign" unicode="#" horiz-adv-x="713" 
d="M319 412l-13 -88h90l13 88h-90zM583 412l-13 -88h58v-155h-83l-27 -169h-174l27 169h-90l-27 -169h-174l27 169h-58v155h83l13 88h-58v155h83l24 153h174l-24 -153h90l24 153h174l-24 -153h58v-155h-83z" />
    <glyph glyph-name="dollar" unicode="$" horiz-adv-x="633" 
d="M270 563q-33 -6 -47.5 -25t-14.5 -39q0 -7 3 -16t11 -17q7 -7 18.5 -13t29.5 -8v118zM418 214q0 28 -14 42q-9 10 -22 13.5t-26 5.5v-122q62 12 62 61zM590 218q0 -47 -16.5 -84.5t-45 -65t-68 -45t-84.5 -24.5v-113h-126v108q-74 2 -134.5 22.5t-110.5 71.5l112 112
q27 -27 69 -38t84 -12v132l-39 5q-93 12 -143 63q-49 50 -49 143q0 43 14.5 81t41.5 67t66 48.5t89 25.5v91h126v-89q63 -4 113 -24t90 -60l-110 -110q-12 12 -26.5 19.5t-30 12t-30.5 6.5t-26 3v-125l41 -6q94 -13 140 -59q29 -28 41 -67t12 -89z" />
    <glyph glyph-name="percent" unicode="%" horiz-adv-x="857" 
d="M696 224q0 22 -10 30.5t-25 8.5t-25 -8.5t-10 -30.5v-87q0 -22 10 -30.5t25 -8.5t25 8.5t10 30.5v87zM231 575q0 22 -10 30.5t-25 8.5t-25 -8.5t-10 -30.5v-87q0 -22 10 -30.5t25 -8.5t25 8.5t10 30.5v87zM322 0h-126l339 712h126zM347 484q0 -36 -12.5 -62t-33.5 -43
t-48 -25.5t-57 -8.5t-57 8.5t-48 25.5t-33.5 43t-12.5 62v95q0 36 12.5 62t33.5 43t48 25.5t57 8.5t57 -8.5t48 -25.5t33.5 -43t12.5 -62v-95v0zM812 133q0 -36 -12.5 -62t-33.5 -43t-48 -25.5t-57 -8.5t-57 8.5t-48 25.5t-33.5 43t-12.5 62v95q0 36 12.5 62t33.5 43
t48 25.5t57 8.5t57 -8.5t48 -25.5t33.5 -43t12.5 -62v-95v0z" />
    <glyph glyph-name="ampersand" unicode="&#x26;" horiz-adv-x="710" 
d="M349 538q0 18 -11 30t-34 12q-26 0 -35.5 -12t-9.5 -31q0 -16 14.5 -32.5t23.5 -25.5l15.5 11l8.5 6q13 9 20.5 19.5t7.5 22.5zM249 295q-25 -17 -33.5 -34.5t-8.5 -43.5q0 -33 25 -54t58 -21q27 0 42.5 7.5t27.5 18.5zM504 0l-45 52q-13 -10 -28 -20t-34.5 -18.5
t-45 -14t-61.5 -5.5q-126 0 -183.5 59t-57.5 163q0 31 10 57.5t26.5 49t36.5 40.5t40 31l-21 24.5t-22 33t-17 40.5t-7 49q0 79 53 128t156 49q47 0 84 -13t62.5 -37t39 -57t13.5 -72q0 -41 -18.5 -69t-51.5 -53q-1 -1 -9 -7l-20 -15t-21 -15l84 -97q7 9 13 21t10 26
t6.5 28.5t3.5 27.5h154q-5 -70 -24.5 -125t-58.5 -98l139 -163h-206z" />
    <glyph glyph-name="quotesingle" unicode="'" horiz-adv-x="262" 
d="M57 478v234h148v-234h-148z" />
    <glyph glyph-name="parenleft" unicode="(" horiz-adv-x="358" 
d="M199 -94l-52.5 53.5t-45.5 59.5q-20 32 -24.5 69.5t-4.5 74.5v386q0 37 4.5 74.5t24.5 69.5q19 32 45.5 59.5l52.5 53.5l110 -110l-16.5 -16.5t-14 -15l-13 -15.5t-13.5 -20q-16 -27 -16 -86v-374q0 -59 16 -86q7 -12 13.5 -20l13 -15.5t14 -15l16.5 -16.5z" />
    <glyph glyph-name="parenright" unicode=")" horiz-adv-x="358" 
d="M286 163q0 -37 -4.5 -74.5t-24.5 -69.5q-19 -32 -45.5 -59.5l-52.5 -53.5l-110 110l16.5 16.5t14 15l13 15.5t13.5 20q16 27 16 86v374q0 59 -16 86q-7 12 -13.5 20l-13 15.5t-14 15l-16.5 16.5l110 110l52.5 -53.5t45.5 -59.5q20 -32 24.5 -69.5t4.5 -74.5v-386v0z" />
    <glyph glyph-name="asterisk" unicode="*" horiz-adv-x="506" 
d="M403 356l-99 64l5 -118h-112l5 118l-99 -64l-56 97l105 54l-105 54l56 97l99 -64l-5 118h112l-5 -118l99 64l56 -97l-105 -54l105 -54z" />
    <glyph glyph-name="plus" unicode="+" 
d="M355 206v-152h-154v152h-152v154h152v152h154v-152h152v-154h-152z" />
    <glyph glyph-name="comma" unicode="," horiz-adv-x="288" 
d="M57 -178v352h174v-224z" />
    <glyph glyph-name="hyphen" unicode="-" horiz-adv-x="426" 
d="M49 218v154h328v-154h-328z" />
    <glyph glyph-name="hyphen" unicode="&#xad;" horiz-adv-x="426" 
d="M49 218v154h328v-154h-328z" />
    <glyph glyph-name="period" unicode="." horiz-adv-x="294" 
d="M57 0v180h180v-180h-180z" />
    <glyph glyph-name="slash" unicode="/" horiz-adv-x="431" 
d="M152 -74h-152l285 860h152z" />
    <glyph glyph-name="zero" unicode="0" 
d="M343 496q0 38 -19.5 56t-45.5 18t-45.5 -18t-19.5 -56v-281q0 -38 19.5 -55.5t45.5 -17.5t45.5 17.5t19.5 55.5v281zM507 216q0 -55 -19 -96.5t-51 -69.5t-73.5 -42t-85.5 -14t-85.5 14t-73.5 42t-51 69.5t-19 96.5v280q0 55 19 96.5t51 69.5t73.5 42t85.5 14t85.5 -14
t73.5 -42t51 -69.5t19 -96.5v-280v0z" />
    <glyph glyph-name="one" unicode="1" 
d="M242 0v537l-152 -132v175l152 132h164v-712h-164z" />
    <glyph glyph-name="two" unicode="2" 
d="M53 0v148l258 280q20 21 28 37t8 39q0 29 -16 47.5t-48 18.5q-11 0 -23 -3t-21.5 -11t-15.5 -21t-6 -34h-164q0 52 18.5 92.5t50 68.5t73 42t88.5 14q49 0 91 -15t72.5 -42.5t47.5 -67.5t17 -90q0 -28 -5.5 -50.5t-17 -42.5t-28 -40t-37.5 -42l-170 -180h258v-148h-458z
" />
    <glyph glyph-name="three" unicode="3" 
d="M516 213q0 -56 -19.5 -97t-52 -68t-75.5 -40.5t-90 -13.5q-44 0 -86.5 12.5t-76 39t-54 69t-20.5 102.5h164q0 -38 21 -56.5t52 -18.5q32 0 52.5 19t20.5 57q0 32 -21.5 53.5t-54.5 21.5h-23v142h23q37 0 52.5 21.5t15.5 45.5q0 34 -19.5 51t-45.5 17t-45.5 -17.5
t-19.5 -49.5h-164q0 50 18 90t49 67.5t72.5 42.5t89.5 15q49 0 91 -15.5t73 -43.5t48 -67t17 -85q0 -29 -6.5 -51.5t-17 -39t-24 -28t-26.5 -20.5q15 -10 29.5 -23.5t26 -32t19 -43t7.5 -56.5z" />
    <glyph glyph-name="four" unicode="4" 
d="M477 94v-94h-156v94h-295v156l236 462h180l-236 -462h115v94h156v-94h53v-156h-53z" />
    <glyph glyph-name="five" unicode="5" 
d="M512 243q0 -32 -3 -58t-10.5 -48.5t-20 -42t-32.5 -39.5q-23 -23 -64 -42t-101 -19t-103 19.5t-66 42.5q-38 38 -48.5 80t-13.5 81h164q4 -35 19.5 -55t47.5 -20q28 0 46 18q21 21 21 83q0 59 -18.5 80t-48.5 21q-18 0 -29.5 -5.5t-19 -13t-11.5 -16.5l-7 -16h-151v419
h434v-148h-285v-110q11 8 37 18t59 10q47 0 81.5 -14t56.5 -36t35 -44.5t20 -46.5t9 -48.5t2 -49.5z" />
    <glyph glyph-name="six" unicode="6" 
d="M348 223q0 40 -21.5 60.5t-51.5 20.5t-51.5 -20.5t-21.5 -60.5t21.5 -60.5t51.5 -20.5t51.5 20.5t21.5 60.5zM512 223q0 -57 -19 -99.5t-51.5 -71.5t-75.5 -43.5t-91 -14.5t-91 14.5t-75.5 43.5t-51.5 71.5t-19 99.5q0 55 21.5 105.5t46.5 101.5l137 282h180l-141 -279
q11 4 21.5 4.5t18.5 0.5q33 0 66.5 -14t61 -41t45 -67t17.5 -93z" />
    <glyph glyph-name="seven" unicode="7" 
d="M300 0h-180l222 564h-152v-112h-156v260h488v-148z" />
    <glyph glyph-name="eight" unicode="8" 
d="M346 502q0 29 -19.5 48.5t-48.5 19.5t-48.5 -19.5t-19.5 -48.5t19.5 -48.5t48.5 -19.5t48.5 19.5t19.5 48.5zM353 217q0 31 -22 53t-53 22t-53 -22t-22 -53t22 -53t53 -22t53 22t22 53zM517 213q0 -56 -19 -97t-51.5 -68t-76 -40.5t-92.5 -13.5t-92.5 13.5t-76 40.5
t-51.5 68t-19 97q0 33 8.5 58t21 43.5t26.5 31t24 20.5l-22 20t-24 29.5t-19 40t-8 51.5q0 51 19 90t51 66t74 41t88 14t88 -14t74 -41t51 -66t19 -90q0 -29 -8 -51.5t-19 -40t-24 -29.5l-22 -20q10 -8 24 -20.5t26.5 -31t21 -43.5t8.5 -58z" />
    <glyph glyph-name="nine" unicode="9" 
d="M354 489q0 40 -21.5 60.5t-51.5 20.5t-51.5 -20.5t-21.5 -60.5t21.5 -60.5t51.5 -20.5t51.5 20.5t21.5 60.5zM518 489q0 -55 -21.5 -105.5t-46.5 -101.5l-137 -282h-180l141 279q-11 -4 -21.5 -4.5t-18.5 -0.5q-33 0 -66.5 14t-61 41t-45 67t-17.5 93q0 57 19 99.5
t51.5 71.5t75.5 43.5t91 14.5t91 -14.5t75.5 -43.5t51.5 -71.5t19 -99.5z" />
    <glyph glyph-name="colon" unicode=":" horiz-adv-x="317" 
d="M80 0v180h180v-180h-180zM80 253v180h180v-180h-180z" />
    <glyph glyph-name="semicolon" unicode=";" horiz-adv-x="317" 
d="M80 253v180h180v-180h-180zM83 -178v352h174v-224z" />
    <glyph glyph-name="semicolon" unicode="&#x37e;" horiz-adv-x="317" 
d="M80 253v180h180v-180h-180zM83 -178v352h174v-224z" />
    <glyph glyph-name="less" unicode="&#x3c;" 
d="M53 224v142l450 198v-173l-235 -96l235 -96v-173z" />
    <glyph glyph-name="equal" unicode="=" 
d="M49 96v154h458v-154h-458zM49 340v154h458v-154h-458z" />
    <glyph glyph-name="greater" unicode="&#x3e;" 
d="M53 26v173l235 96l-235 96v173l450 -198v-142z" />
    <glyph glyph-name="question" unicode="?" horiz-adv-x="538" 
d="M204 0v161h168v-161h-168zM508 508q0 -39 -15 -70t-36 -58l-69 -87q-7 -8 -12.5 -21t-5.5 -26v-9h-164v23q0 34 9 59.5t32 51.5l70 82q11 13 19 28.5t8 27.5q0 26 -15 43.5t-45 17.5q-32 0 -46 -18t-14 -45h-164q0 51 18 90.5t48.5 66t71.5 40.5t86 14q44 0 84.5 -13.5
t71.5 -39.5t49.5 -65.5t18.5 -91.5z" />
    <glyph glyph-name="at" unicode="@" horiz-adv-x="784" 
d="M579 226q0 54 -15 75t-45 21t-45 -21t-15 -75t15 -75t45 -21t45 21t15 75zM584 0v40q-23 -23 -48.5 -34.5t-64.5 -11.5q-37 0 -67.5 11.5t-52.5 32.5q-17 16 -27 35t-14.5 42t-5.5 50.5t-1 60.5t1 60.5t5.5 50t14.5 41.5t27 36q22 21 52 32.5t67 11.5q35 0 61.5 -10.5
t47.5 -30.5v26q0 26 -6 50.5t-26 44.5q-19 19 -44 25.5t-51 6.5h-120q-26 0 -50.5 -6t-44.5 -26q-21 -21 -26.5 -45t-5.5 -50v-262q0 -32 8 -49t28 -37l-113 -113q-21 21 -35.5 40t-24.5 41t-14.5 48t-4.5 60v278q0 67 13 117t51 88t88.5 51t119.5 13h142q66 0 117.5 -12.5
t90.5 -51.5q38 -38 51 -87.5t13 -117.5v-453z" />
    <glyph glyph-name="A" unicode="A" horiz-adv-x="653" 
d="M331 442l-64 -190h124zM470 0l-33 106h-219l-35 -106h-183l259 712h135l259 -712h-183z" />
    <glyph glyph-name="B" unicode="B" horiz-adv-x="653" 
d="M419 497q0 21 -13.5 39.5t-49.5 18.5h-109v-116h109q36 0 49.5 18.5t13.5 39.5zM429 220q0 23 -14 42.5t-50 19.5h-118v-125h118q36 0 50 20t14 43zM604 210q0 -51 -17 -90t-46.5 -66t-70 -40.5t-88.5 -13.5h-310v712h295q55 0 97.5 -15t71.5 -42t43.5 -65t14.5 -84
q0 -30 -9 -54t-21.5 -41.5t-26 -28.5t-21.5 -17q11 -7 26 -18t29 -29t23.5 -44.5t9.5 -63.5z" />
    <glyph glyph-name="C" unicode="C" horiz-adv-x="609" 
d="M589 226q-10 -59 -34.5 -102.5t-60 -72.5t-80 -43t-95.5 -14q-63 0 -111 20.5t-87 59.5q-28 28 -43 60.5t-21.5 68.5t-7 74.5t-0.5 78.5t0.5 78.5t7 74.5t21.5 68.5t43 60.5q39 39 87 59.5t111 20.5q51 0 95.5 -14t80 -43t60 -72.5t34.5 -102.5h-178q-8 30 -28 53t-63 23
q-24 0 -41.5 -8.5t-27.5 -21.5q-6 -8 -11 -18t-8.5 -29t-5.5 -49.5t-2 -79.5t2 -79.5t5.5 -49.5t8.5 -29t11 -18q10 -13 27.5 -21.5t41.5 -8.5q43 0 63 23t28 53h178v0z" />
    <glyph glyph-name="D" unicode="D" horiz-adv-x="651" 
d="M427 356q0 45 -1 73t-3.5 44.5t-6 25.5t-8.5 17q-12 18 -31.5 29t-52.5 11h-77v-400h77q33 0 52.5 11t31.5 29q5 7 8.5 16t6 26t3.5 45t1 73zM602 356v-81q0 -38 -6 -73t-21.5 -68t-46.5 -64q-37 -37 -86.5 -53.5t-105.5 -16.5h-264v712h264q56 0 105.5 -16.5t86.5 -53.5
q31 -31 46.5 -64t21.5 -68t6 -74v-80z" />
    <glyph glyph-name="E" unicode="E" horiz-adv-x="608" 
d="M72 0v712h484v-156h-309v-119h264v-156h-264v-125h309v-156h-484z" />
    <glyph glyph-name="F" unicode="F" horiz-adv-x="596" 
d="M247 556v-125h264v-156h-264v-275h-175v712h484v-156h-309z" />
    <glyph glyph-name="G" unicode="G" horiz-adv-x="647" 
d="M598 311q0 -86 -16 -141t-56 -96q-46 -47 -97.5 -63.5t-109.5 -16.5q-63 0 -111 20.5t-87 59.5q-28 28 -43 60.5t-21.5 68.5t-7 74.5t-0.5 78.5t0.5 78.5t7 74.5t21.5 68.5t43 60.5q39 39 86 59.5t112 20.5q69 0 118.5 -20.5t83 -53.5t52 -75.5t24.5 -86.5h-176
q-11 41 -34 60.5t-68 19.5q-24 0 -41.5 -9t-27.5 -22q-6 -8 -11 -18t-8 -28.5t-5 -49t-2 -79.5t2 -79.5t5 -49.5t8 -29t11 -18q10 -13 27.5 -21.5t41.5 -8.5q28 0 47 7.5t31 20.5q15 15 21 35.5t6 40.5v10h-105v146h279v-99v0z" />
    <glyph glyph-name="H" unicode="H" horiz-adv-x="680" 
d="M433 0v282h-186v-282h-175v712h175v-274h186v274h175v-712h-175z" />
    <glyph glyph-name="I" unicode="I" horiz-adv-x="319" 
d="M72 0v712h175v-712h-175z" />
    <glyph glyph-name="J" unicode="J" horiz-adv-x="516" 
d="M454 244q0 -63 -23 -110t-60.5 -78t-86 -46.5t-98.5 -15.5q-62 0 -106.5 17t-87.5 61l115 114q17 -17 33.5 -26.5t45.5 -9.5q41 0 67 23.5t26 74.5v464h175v-468v0z" />
    <glyph glyph-name="K" unicode="K" horiz-adv-x="673" 
d="M469 0l-164 292l-60 -69v-223h-173v712h173v-252l206 252h214l-243 -288l251 -424h-204z" />
    <glyph glyph-name="L" unicode="L" horiz-adv-x="576" 
d="M72 0v712h175v-556h299v-156h-474z" />
    <glyph glyph-name="M" unicode="M" horiz-adv-x="808" 
d="M561 0v341l-101 -176h-112l-101 176v-341h-175v712h172l160 -314l160 314h172v-712h-175z" />
    <glyph glyph-name="N" unicode="N" horiz-adv-x="700" 
d="M475 0l-228 358v-358h-175v712h153l228 -358v358h175v-712h-153z" />
    <glyph glyph-name="O" unicode="O" horiz-adv-x="640" 
d="M416 356q0 49 -2 79.5t-5 49t-8 28.5t-11 18q-10 13 -28 22t-42 9t-42 -9t-28 -22q-6 -8 -11 -18t-8 -28.5t-5 -49t-2 -79.5t2 -79t5 -48.5t8 -28.5t11 -18q10 -13 28 -22.5t42 -9.5t42 9.5t28 22.5q6 8 11 18t8 28.5t5 48.5t2 79zM591 356q0 -40 -0.5 -78.5t-7 -74.5
t-21.5 -68.5t-43 -60.5q-39 -39 -86 -59.5t-113 -20.5t-113 20.5t-86 59.5q-28 28 -43 60.5t-21.5 68.5t-7 74.5t-0.5 78.5t0.5 78.5t7 74.5t21.5 68.5t43 60.5q39 39 86 59.5t113 20.5t113 -20.5t86 -59.5q28 -28 43 -60.5t21.5 -68.5t7 -74.5t0.5 -78.5z" />
    <glyph glyph-name="P" unicode="P" horiz-adv-x="627" 
d="M422 483q0 28 -20 50t-56 22h-99v-144h99q36 0 56 22t20 50zM597 483q0 -44 -16 -85t-46.5 -73t-76 -51.5t-104.5 -19.5h-107v-254h-175v712h282q59 0 104.5 -19.5t76 -51.5t46.5 -73t16 -85z" />
    <glyph glyph-name="Q" unicode="Q" horiz-adv-x="640" 
d="M416 356q0 49 -2 79.5t-5 49t-8 28.5t-11 18q-10 13 -28 22t-42 9t-42 -9t-28 -22q-6 -8 -11 -18t-8 -28.5t-5 -49t-2 -79.5t2 -79t5 -48.5t8 -28.5t11 -18q10 -13 28 -22.5t42 -9.5q9 0 14 1l-45 45l89 89l34 -34q2 18 3 43.5t1 61.5zM513 -28l-55 55q-57 -33 -138 -33
q-66 0 -113 20.5t-86 59.5q-28 28 -43 60.5t-21.5 68.5t-7 74.5t-0.5 78.5t0.5 78.5t7 74.5t21.5 68.5t43 60.5q39 39 86 59.5t113 20.5t113 -20.5t86 -59.5q28 -28 43 -60.5t21.5 -68.5t7 -74.5t0.5 -78.5q0 -33 -0.5 -65.5t-4 -63.5t-12 -59.5t-24.5 -54.5l52 -52z" />
    <glyph glyph-name="R" unicode="R" horiz-adv-x="652" 
d="M422 483q0 28 -20 50t-56 22h-99v-144h99q36 0 56 22t20 50zM432 0l-126 265h-59v-265h-175v712h282q59 0 104.5 -19.5t76 -51.5t46.5 -73t16 -85q0 -36 -10.5 -66t-27 -53t-37 -40t-41.5 -27l154 -297h-203z" />
    <glyph glyph-name="S" unicode="S" horiz-adv-x="593" 
d="M550 218q0 -54 -22 -96t-59.5 -70.5t-87.5 -43t-106 -14.5q-41 0 -78 4.5t-71 15t-64 28.5t-57 46l112 112q28 -28 72 -39t87 -11q102 0 102 64q0 27 -14 42q-15 15 -47 19l-86 12q-95 14 -143 63q-49 50 -49 143q0 49 18 90t51.5 71t81.5 47t109 17q77 0 135.5 -19.5
t104.5 -65.5l-110 -110q-17 17 -36 25.5t-37 12.5t-34 4h-28q-23 0 -39 -6t-26.5 -15.5t-15.5 -21t-5 -23.5q0 -7 3 -16t11 -17q7 -7 18.5 -13t30.5 -8l86 -12q94 -13 140 -59q29 -28 41 -67t12 -89z" />
    <glyph glyph-name="T" unicode="T" horiz-adv-x="585" 
d="M380 556v-556h-175v556h-175v156h525v-156h-175z" />
    <glyph glyph-name="U" unicode="U" horiz-adv-x="660" 
d="M600 250q0 -59 -21.5 -106t-58.5 -80.5t-86.5 -51.5t-104.5 -18q-56 0 -104.5 18t-85.5 51.5t-58 80.5t-21 106v462h175v-458q0 -50 25 -77t69 -27t70 27t26 77v458h175v-462v0z" />
    <glyph glyph-name="V" unicode="V" horiz-adv-x="601" 
d="M365 0h-130l-235 712h181l120 -398l118 398h182z" />
    <glyph glyph-name="W" unicode="W" horiz-adv-x="906" 
d="M711 0h-143l-115 351l-115 -351h-142l-196 712h183l93 -376l115 376h124l115 -376l93 376h183z" />
    <glyph glyph-name="X" unicode="X" horiz-adv-x="634" 
d="M434 0l-117 219l-117 -219h-200l222 365l-208 347h199l104 -201l104 201h199l-208 -347l222 -365h-200z" />
    <glyph glyph-name="Y" unicode="Y" horiz-adv-x="605" 
d="M390 290v-290h-175v290l-215 422h191l112 -256l111 256h191z" />
    <glyph glyph-name="Z" unicode="Z" horiz-adv-x="543" 
d="M30 0v136l273 420h-261v156h471v-136l-274 -420h274v-156h-483z" />
    <glyph glyph-name="bracketleft" unicode="[" horiz-adv-x="416" 
d="M72 -74v860h304v-148h-140v-564h140v-148h-304z" />
    <glyph glyph-name="backslash" unicode="\" horiz-adv-x="431" 
d="M279 -74l-279 842h152l279 -842h-152z" />
    <glyph glyph-name="bracketright" unicode="]" horiz-adv-x="416" 
d="M40 -74v148h140v564h-140v148h304v-860h-304z" />
    <glyph glyph-name="asciicircum" unicode="^" horiz-adv-x="640" 
d="M410 375l-90 165l-90 -165h-173l187 345h152l187 -345h-173z" />
    <glyph glyph-name="underscore" unicode="_" horiz-adv-x="640" 
d="M0 -186v108h640v-108h-640z" />
    <glyph glyph-name="grave" unicode="`" horiz-adv-x="500" 
d="M209 610l-118 180h168l49 -180h-99z" />
    <glyph glyph-name="a" unicode="a" horiz-adv-x="536" 
d="M319 216h-83q-24 0 -38 -12t-14 -31q0 -18 13.5 -31.5t40.5 -13.5q24 0 37.5 3.5t27.5 16.5q16 15 16 54v14zM323 0v44q-25 -25 -51 -37t-69 -12q-41 0 -73.5 12.5t-55.5 35.5t-35 55.5t-12 70.5q0 30 10.5 58.5t33 50t57 34.5t82.5 13h109v14q0 37 -19 52t-62 15
q-32 0 -49 -8t-37 -28l-102 102q21 21 41 34.5t43.5 22t50.5 12t61 3.5q116 0 176.5 -48t60.5 -147v-349h-160z" />
    <glyph glyph-name="b" unicode="b" horiz-adv-x="569" 
d="M362 269q0 29 -2 52.5t-9 40t-20.5 25.5t-36.5 9t-36.5 -9t-20.5 -25.5t-9 -40t-2 -52.5t2 -52.5t9 -40t20.5 -25.5t36.5 -9t36.5 9t20.5 25.5t9 40t2 52.5zM526 269q0 -30 -0.5 -61.5t-5 -61.5t-14.5 -56.5t-30 -46.5q-23 -23 -57.5 -36t-73.5 -13q-42 0 -70.5 12.5
t-53.5 37.5v-44h-159v712h164v-213q23 23 51.5 34t68.5 11q39 0 73 -13t57 -36q20 -20 30 -46.5t14.5 -56.5t5 -61.5t0.5 -61.5z" />
    <glyph glyph-name="c" unicode="c" horiz-adv-x="475" 
d="M457 63q-33 -33 -76.5 -51t-100.5 -18q-35 0 -77 10t-79 39.5t-61.5 83.5t-24.5 142t24.5 142t61.5 83.5t79 39.5t77 10q57 0 100.5 -18t76.5 -51l-111 -111q-16 16 -31 24t-35 8q-17 0 -28.5 -5t-22.5 -16q-27 -28 -27 -106t27 -106q11 -11 22.5 -16t28.5 -5q20 0 35 8
t31 24l111 -111v0z" />
    <glyph glyph-name="d" unicode="d" horiz-adv-x="569" 
d="M343 269q0 29 -2 52.5t-9 40t-20.5 25.5t-36.5 9t-36.5 -9t-20.5 -25.5t-9 -40t-2 -52.5t2 -52.5t9 -40t20.5 -25.5t36.5 -9t36.5 9t20.5 25.5t9 40t2 52.5zM348 0v44q-25 -25 -53.5 -37.5t-70.5 -12.5q-39 0 -73.5 13t-57.5 36q-20 20 -30 46.5t-14.5 56.5t-5 61.5
t-0.5 61.5t0.5 61.5t5 61.5t14.5 56.5t30 46.5q23 23 57 36t73 13q40 0 68.5 -11t51.5 -34v213h164v-712h-159z" />
    <glyph glyph-name="e" unicode="e" horiz-adv-x="559" 
d="M359 325q0 10 -2 20.5t-7 21.5q-8 17 -25 29.5t-46 12.5t-46 -12.5t-25 -29.5q-5 -11 -7 -21.5t-2 -20.5h160v0zM199 216q0 -33 24.5 -58.5t70.5 -25.5q43 0 66 11.5t45 33.5l98 -98q-21 -21 -42 -36.5t-45.5 -26.5t-54.5 -16.5t-67 -5.5q-45 0 -90.5 10.5t-82 40
t-60 83.5t-23.5 141q0 66 18 117t50 86.5t76 53.5t97 18q58 0 103.5 -20t76 -54.5t46.5 -81t16 -99.5v-73h-322z" />
    <glyph glyph-name="f" unicode="f" horiz-adv-x="358" 
d="M243 391v-391h-164v391h-49v126h49v47q0 28 9.5 56t29.5 51t51.5 37.5t76.5 14.5h87v-138h-57q-33 0 -33 -33v-35h90v-126h-90z" />
    <glyph glyph-name="g" unicode="g" horiz-adv-x="561" 
d="M335 289q0 21 -1.5 40t-8 34t-19.5 24t-35 9q-23 0 -35.5 -9t-19 -24t-8 -34t-1.5 -40t1.5 -40t8 -34t19 -24t35.5 -9q22 0 35 9t19.5 24t8 34t1.5 40zM499 39q0 -48 -17.5 -88t-49 -69t-76.5 -45.5t-100 -16.5q-63 0 -112 14.5t-90 55.5l102 102q19 -19 41.5 -26.5
t50.5 -7.5q26 0 43 8t26.5 20t13.5 26.5t4 27.5v39q-23 -23 -50.5 -34t-65.5 -11q-78 0 -126 48q-18 18 -28.5 39t-15 46t-5.5 55t-1 67t1 67t5.5 55t15 46t28.5 39q48 48 127 48q42 0 68.5 -12.5t51.5 -37.5v44h159v-499v0z" />
    <glyph glyph-name="h" unicode="h" horiz-adv-x="573" 
d="M352 0v326q0 22 -7 35.5t-16.5 21t-20.5 10.5t-19 3t-19 -3t-20.5 -10.5t-16.5 -21t-7 -35.5v-326h-164v712h164v-218q26 26 56.5 38t61.5 12q43 0 75.5 -15t54 -41.5t32 -62t10.5 -76.5v-349h-164z" />
    <glyph glyph-name="i" unicode="i" horiz-adv-x="288" 
d="M62 593v125h164v-125h-164zM62 0v517h164v-517h-164z" />
    <glyph glyph-name="j" unicode="j" horiz-adv-x="288" 
d="M62 593v125h164v-125h-164zM226 -21q0 -28 -9.5 -56t-29.5 -51t-51.5 -37.5t-76.5 -14.5h-87v138h57q33 0 33 33v526h164v-538v0z" />
    <glyph glyph-name="k" unicode="k" horiz-adv-x="573" 
d="M370 0l-112 197l-32 -35v-162h-164v712h164v-362l145 188h197l-198 -223l203 -315h-203z" />
    <glyph glyph-name="l" unicode="l" horiz-adv-x="341" 
d="M224 0q-45 0 -76.5 14.5t-51.5 37.5t-29.5 51t-9.5 56v553h164v-541q0 -33 33 -33h57v-138h-87z" />
    <glyph glyph-name="m" unicode="m" horiz-adv-x="875" 
d="M654 0v322q0 23 -7 37.5t-17.5 22.5t-22 11t-19.5 3t-19.5 -3t-22 -11t-17.5 -22.5t-7 -37.5v-322h-164v322q0 23 -7 37.5t-17.5 22.5t-22 11t-19.5 3t-19.5 -3t-22 -11t-17.5 -22.5t-7 -37.5v-322h-164v538h160v-44q25 25 59 37.5t66 12.5q40 0 72.5 -13.5t58.5 -43.5
q35 31 70 44t82 13q38 0 72.5 -12t56.5 -34q35 -35 47 -73t12 -81v-344h-164z" />
    <glyph glyph-name="n" unicode="n" horiz-adv-x="579" 
d="M358 0v322q0 23 -7 37.5t-17.5 22.5t-22 11t-19.5 3t-19.5 -3t-22 -11t-17.5 -22.5t-7 -37.5v-322h-164v538h160v-44q25 25 59 37.5t66 12.5q38 0 68.5 -12t52.5 -34q35 -35 44.5 -73t9.5 -81v-344h-164z" />
    <glyph glyph-name="o" unicode="o" horiz-adv-x="550" 
d="M343 269q0 40 -4 68t-20 44q-15 15 -44 15t-44 -15q-16 -16 -20 -44t-4 -68t4 -68t20 -44q15 -15 44 -15t44 15q16 16 20 44t4 68zM507 269q0 -40 -3 -70t-9.5 -54t-18 -44t-28.5 -38q-24 -26 -66 -47.5t-107 -21.5t-107 21.5t-66 47.5q-17 18 -28.5 38t-18 44t-9.5 54
t-3 70q0 39 3 69.5t9.5 54.5t18 44t28.5 38q12 13 28.5 25t37.5 22t47.5 16t59.5 6t59.5 -6t47.5 -16t37.5 -22t28.5 -25q17 -18 28.5 -38t18 -44t9.5 -54.5t3 -69.5z" />
    <glyph glyph-name="p" unicode="p" horiz-adv-x="569" 
d="M362 269q0 29 -2 52.5t-9 40t-20.5 25.5t-36.5 9t-36.5 -9t-20.5 -25.5t-9 -40t-2 -52.5t2 -52.5t9 -40t20.5 -25.5t36.5 -9t36.5 9t20.5 25.5t9 40t2 52.5zM526 269q0 -30 -0.5 -61.5t-5 -61.5t-14.5 -56.5t-30 -46.5q-23 -23 -57 -36t-73 -13q-40 0 -68.5 11t-51.5 34
v-213h-164v712h159v-44q25 25 53.5 37.5t70.5 12.5q39 0 73.5 -13t57.5 -36q20 -20 30 -46.5t14.5 -56.5t5 -61.5t0.5 -61.5z" />
    <glyph glyph-name="q" unicode="q" horiz-adv-x="569" 
d="M343 269q0 29 -2 52.5t-9 40t-20.5 25.5t-36.5 9t-36.5 -9t-20.5 -25.5t-9 -40t-2 -52.5t2 -52.5t9 -40t20.5 -25.5t36.5 -9t36.5 9t20.5 25.5t9 40t2 52.5zM343 -174v213q-23 -23 -51.5 -34t-68.5 -11q-39 0 -73 13t-57 36q-20 20 -30 46.5t-14.5 56.5t-5 61.5
t-0.5 61.5t0.5 61.5t5 61.5t14.5 56.5t30 46.5q23 23 57.5 36t73.5 13q42 0 70.5 -12.5t53.5 -37.5v44h159v-712h-164z" />
    <glyph glyph-name="r" unicode="r" horiz-adv-x="475" 
d="M351 368q-12 12 -25 20t-34 8q-8 0 -19.5 -3t-22 -11t-17.5 -22.5t-7 -37.5v-322h-164v538h160v-44q18 18 51.5 34t75.5 16q40 0 69 -11t57 -39z" />
    <glyph glyph-name="s" unicode="s" horiz-adv-x="504" 
d="M477 176q0 -48 -19 -82t-51 -56.5t-74 -33t-89 -10.5q-30 0 -60 2t-59.5 9.5t-58 23t-56.5 43.5l106 106q17 -17 35.5 -26t36.5 -13.5t33 -5t26 -0.5q9 0 21 1.5t23 5.5t18.5 10.5t7.5 17.5t-7.5 21.5t-31.5 12.5l-83 8q-35 3 -63.5 13t-49 29t-32 47t-11.5 67
q0 45 18.5 78t48.5 55.5t68.5 33.5t78.5 11q66 0 119 -13t93 -53l-101 -101q-20 20 -51 26t-63 6q-30 0 -41.5 -11t-11.5 -20q0 -2 0.5 -6.5t3.5 -9t10 -9t21 -5.5l83 -8q42 -4 73 -18t50.5 -36t29 -50t9.5 -60z" />
    <glyph glyph-name="t" unicode="t" horiz-adv-x="363" 
d="M241 0q-45 0 -76.5 14.5t-51.5 37.5t-29.5 51t-9.5 56v232h-49v126h49v154h164v-154h85v-126h-85v-220q0 -33 33 -33h52v-138h-82z" />
    <glyph glyph-name="u" unicode="u" horiz-adv-x="579" 
d="M357 0v44q-25 -25 -59 -37.5t-66 -12.5q-38 0 -68.5 12t-52.5 34q-35 35 -44.5 73t-9.5 81v344h164v-322q0 -23 7 -37.5t17.5 -22.5t22 -11t19.5 -3t19.5 3t22 11t17.5 22.5t7 37.5v322h164v-538h-160z" />
    <glyph glyph-name="v" unicode="v" horiz-adv-x="521" 
d="M323 0h-125l-198 538h172l89 -279l88 279h172z" />
    <glyph glyph-name="w" unicode="w" horiz-adv-x="780" 
d="M618 0h-131l-97 295l-97 -295h-131l-162 538h173l67 -279l93 279h114l93 -279l67 279h173z" />
    <glyph glyph-name="x" unicode="x" 
d="M359 0l-82 136l-80 -136h-197l187 275l-180 263h197l73 -130l75 130h197l-180 -263l187 -275h-197z" />
    <glyph glyph-name="y" unicode="y" horiz-adv-x="514" 
d="M299 -64q-16 -45 -42 -71q-24 -26 -54.5 -35.5t-66.5 -9.5h-62v148h35q22 0 34.5 7.5t20.5 32.5l15 45l-179 485h172l91 -279l87 279h172z" />
    <glyph glyph-name="z" unicode="z" horiz-adv-x="489" 
d="M30 0v121l205 269h-193v148h407v-121l-209 -269h209v-148h-419z" />
    <glyph glyph-name="braceleft" unicode="{" horiz-adv-x="518" 
d="M338 -74q-40 0 -69.5 11t-49.5 31q-26 26 -37 56t-11 61v119q0 43 -17 60q-18 18 -56 18h-58v148h58q38 0 56 18q17 17 17 60v119q0 31 11 61t37 56q20 20 49.5 31t69.5 11h140v-148h-70q-21 0 -35 -3t-22 -11q-16 -16 -16 -64v-104q0 -30 -8.5 -49t-20.5 -29.5
t-24.5 -15t-19.5 -6.5q7 -2 19.5 -6.5t24.5 -15t20.5 -29.5t8.5 -49v-104q0 -48 16 -64q8 -8 22 -11t35 -3h70v-148h-140z" />
    <glyph glyph-name="bar" unicode="|" horiz-adv-x="364" 
d="M100 -74v860h164v-860h-164z" />
    <glyph glyph-name="braceright" unicode="}" horiz-adv-x="518" 
d="M420 282q-38 0 -56 -18q-17 -17 -17 -60v-119q0 -31 -11 -61t-37 -56q-20 -20 -49.5 -31t-69.5 -11h-140v148h70q21 0 35 3t22 11q9 9 12.5 24t3.5 40v104q0 30 8.5 49t20.5 29.5t24.5 15t19.5 6.5q-7 2 -19.5 6.5t-24.5 15t-20.5 29.5t-8.5 49v104q0 48 -16 64
q-8 8 -22 11t-35 3h-70v148h140q40 0 69.5 -11t49.5 -31q26 -26 37 -56t11 -61v-119q0 -43 17 -60q18 -18 56 -18h58v-148h-58z" />
    <glyph glyph-name="asciitilde" unicode="~" horiz-adv-x="646" 
d="M616 283q-49 -49 -91.5 -72.5t-95.5 -23.5q-34 0 -61 7t-62 27q-22 13 -41.5 19t-42.5 6q-20 0 -40.5 -7t-47.5 -34l-104 104q24 24 46 42t44 30t45 18t50 6q34 0 61 -7t62 -27q22 -13 41.5 -19t42.5 -6q20 0 40.5 7t47.5 34l106 -104v0z" />
    <glyph glyph-name="Euro" horiz-adv-x="688" 
d="M646 226q-10 -59 -34.5 -102.5t-60 -72.5t-80 -43t-95.5 -14q-63 0 -111 20.5t-87 59.5q-32 32 -47 70t-20 80h-76v102h71v62h-71v102h76q5 42 20 79t47 69q39 39 87 59.5t111 20.5q51 0 95.5 -14t80 -43t60 -72.5t34.5 -102.5h-178q-8 30 -28 53t-63 23
q-24 0 -41.5 -8.5t-27.5 -21.5l-10 -16.5t-8 -25.5h107v-102h-116v-62h116v-102h-108q4 -17 8.5 -26.5t10.5 -17.5q10 -13 27.5 -21.5t41.5 -8.5q43 0 63 23t28 53h178v0z" />
    <glyph glyph-name="Euro" unicode="&#x20ac;" horiz-adv-x="688" 
d="M646 226q-10 -59 -34.5 -102.5t-60 -72.5t-80 -43t-95.5 -14q-63 0 -111 20.5t-87 59.5q-32 32 -47 70t-20 80h-76v102h71v62h-71v102h76q5 42 20 79t47 69q39 39 87 59.5t111 20.5q51 0 95.5 -14t80 -43t60 -72.5t34.5 -102.5h-178q-8 30 -28 53t-63 23
q-24 0 -41.5 -8.5t-27.5 -21.5l-10 -16.5t-8 -25.5h107v-102h-116v-62h116v-102h-108q4 -17 8.5 -26.5t10.5 -17.5q10 -13 27.5 -21.5t41.5 -8.5q43 0 63 23t28 53h178v0z" />
    <glyph glyph-name="quotesinglbase" unicode="&#x201a;" horiz-adv-x="276" 
d="M57 -118v265h164v-147z" />
    <glyph glyph-name="florin" unicode="&#x192;" horiz-adv-x="441" 
d="M331 585q-33 0 -39 -33l-26 -148h90v-126h-112l-80 -452h-164l80 452h-49v126h71l28 160q5 28 19.5 56.5t38.5 51.5t58 37t79 14l86 -1v-137h-80z" />
    <glyph glyph-name="quotedblbase" unicode="&#x201e;" horiz-adv-x="514" 
d="M57 -118v265h163v-147zM290 -118v265h164v-147z" />
    <glyph glyph-name="ellipsis" unicode="&#x2026;" horiz-adv-x="899" 
d="M364 0v170h170v-170h-170zM57 0v170h170v-170h-170zM672 0v170h170v-170h-170z" />
    <glyph glyph-name="dagger" unicode="&#x2020;" horiz-adv-x="564" 
d="M364 390v-390h-164v390h-153v148h153v174h164v-174h153v-148h-153z" />
    <glyph glyph-name="daggerdbl" unicode="&#x2021;" horiz-adv-x="564" 
d="M364 0v-174h-164v174h-153v148h153v242h-153v148h153v174h164v-174h153v-148h-153v-242h153v-148h-153z" />
    <glyph glyph-name="circumflex" unicode="&#x2c6;" horiz-adv-x="500" 
d="M329 610l-79 83l-79 -83h-120l136 179h126l136 -179h-120z" />
    <glyph glyph-name="perthousand" unicode="&#x2030;" horiz-adv-x="1229" 
d="M696 224q0 22 -10 30.5t-25 8.5t-25 -8.5t-10 -30.5v-87q0 -22 10 -30.5t25 -8.5t25 8.5t10 30.5v87zM1068 224q0 22 -10 30.5t-25 8.5t-25 -8.5t-10 -30.5v-87q0 -22 10 -30.5t25 -8.5t25 8.5t10 30.5v87zM231 575q0 22 -10 30.5t-25 8.5t-25 -8.5t-10 -30.5v-87
q0 -22 10 -30.5t25 -8.5t25 8.5t10 30.5v87zM322 0h-126l339 712h126zM347 484q0 -36 -12.5 -62t-33.5 -43t-48 -25.5t-57 -8.5t-57 8.5t-48 25.5t-33.5 43t-12.5 62v95q0 36 12.5 62t33.5 43t48 25.5t57 8.5t57 -8.5t48 -25.5t33.5 -43t12.5 -62v-95v0zM812 133
q0 -36 -12.5 -62t-33.5 -43t-48 -25.5t-57 -8.5t-57 8.5t-48 25.5t-33.5 43t-12.5 62v95q0 36 12.5 62t33.5 43t48 25.5t57 8.5t57 -8.5t48 -25.5t33.5 -43t12.5 -62v-95v0zM1184 133q0 -36 -12.5 -62t-33.5 -43t-48 -25.5t-57 -8.5t-57 8.5t-48 25.5t-33.5 43t-12.5 62v95
q0 36 12.5 62t33.5 43t48 25.5t57 8.5t57 -8.5t48 -25.5t33.5 -43t12.5 -62v-95v0z" />
    <glyph glyph-name="Scaron" unicode="&#x160;" horiz-adv-x="593" 
d="M360 782h-126l-136 179h120l79 -83l79 83h120zM550 218q0 -54 -22 -96t-59.5 -70.5t-87.5 -43t-106 -14.5q-41 0 -78 4.5t-71 15t-64 28.5t-57 46l112 112q28 -28 72 -39t87 -11q102 0 102 64q0 27 -14 42q-15 15 -47 19l-86 12q-95 14 -143 63q-49 50 -49 143
q0 49 18 90t51.5 71t81.5 47t109 17q77 0 135.5 -19.5t104.5 -65.5l-110 -110q-17 17 -36 25.5t-37 12.5t-34 4h-28q-23 0 -39 -6t-26.5 -15.5t-15.5 -21t-5 -23.5q0 -7 3 -16t11 -17q7 -7 18.5 -13t30.5 -8l86 -12q94 -13 140 -59q29 -28 41 -67t12 -89z" />
    <glyph glyph-name="guilsinglleft" unicode="&#x2039;" horiz-adv-x="363" 
d="M30 280l273 270v-193l-79 -77l79 -78v-193z" />
    <glyph glyph-name="OE" unicode="&#x152;" horiz-adv-x="952" 
d="M416 356q0 49 -2 79.5t-5 49t-8 28.5t-11 18q-10 13 -28 22t-42 9t-42 -9t-28 -22q-6 -8 -11 -18t-8 -28.5t-5 -49t-2 -79.5t2 -79t5 -48.5t8 -28.5t11 -18q10 -13 28 -22.5t42 -9.5t42 9.5t28 22.5q6 8 11 18t8 28.5t5 48.5t2 79zM416 0v26q-21 -20 -50.5 -26t-51.5 -6
q-65 0 -109.5 18.5t-83.5 57.5q-27 27 -42 60t-21.5 70t-7.5 76.5t-1 79.5t1 79.5t7.5 76t21.5 70t42 60.5q39 39 84 57.5t110 18.5q22 0 51 -6t50 -26v26h484v-156h-309v-119h264v-156h-264v-125h309v-156h-484z" />
    <glyph glyph-name="Zcaron" horiz-adv-x="543" 
d="M336 782h-126l-136 179h120l79 -83l79 83h120zM30 0v136l273 420h-261v156h471v-136l-274 -420h274v-156h-483z" />
    <glyph glyph-name="Zcaron" unicode="&#x17d;" horiz-adv-x="543" 
d="M336 782h-126l-136 179h120l79 -83l79 83h120zM30 0v136l273 420h-261v156h471v-136l-274 -420h274v-156h-483z" />
    <glyph glyph-name="quoteleft" unicode="&#x2018;" horiz-adv-x="278" 
d="M57 566v146l164 120v-266h-164z" />
    <glyph glyph-name="quoteright" unicode="&#x2019;" horiz-adv-x="278" 
d="M57 447v265h164v-147z" />
    <glyph glyph-name="quotedblleft" unicode="&#x201c;" horiz-adv-x="511" 
d="M57 566v146l163 120v-266h-163zM290 566v146l164 120v-266h-164z" />
    <glyph glyph-name="quotedblright" unicode="&#x201d;" horiz-adv-x="511" 
d="M57 447v265h163v-147zM290 447v265h164v-147z" />
    <glyph glyph-name="bullet" unicode="&#x2022;" horiz-adv-x="470" 
d="M398 334q0 -34 -13 -63.5t-35 -51.5t-51.5 -35t-63.5 -13t-63.5 13t-51.5 35t-35 51.5t-13 63.5t13 63.5t35 51.5t51.5 35t63.5 13t63.5 -13t51.5 -35t35 -51.5t13 -63.5z" />
    <glyph glyph-name="endash" unicode="&#x2013;" 
d="M49 218v154h458v-154h-458z" />
    <glyph glyph-name="emdash" unicode="&#x2014;" horiz-adv-x="1093" 
d="M49 220v158h995v-158h-995z" />
    <glyph glyph-name="tilde" unicode="&#x2dc;" horiz-adv-x="500" 
d="M443 683q-32 -32 -60 -47.5t-63 -15.5q-23 0 -40.5 4t-40.5 18q-14 8 -27.5 12.5t-28.5 4.5q-14 0 -27 -4.5t-31 -22.5l-68 69q32 32 59.5 47.5t62.5 15.5q23 0 40.5 -4t40.5 -18q14 -8 27 -12.5t28 -4.5q14 0 27 4.5t31 22.5l70 -69v0z" />
    <glyph glyph-name="trademark" unicode="&#x2122;" horiz-adv-x="973" 
d="M272 608v-323h-116v323h-105v104h326v-104h-105zM789 285v219l-67 -131h-100l-67 131v-219h-117v427h117l117 -210l117 210h117v-427h-117z" />
    <glyph glyph-name="scaron" unicode="&#x161;" horiz-adv-x="504" 
d="M316 610h-126l-136 179h120l79 -83l79 83h120zM477 176q0 -48 -19 -82t-51 -56.5t-74 -33t-89 -10.5q-30 0 -60 2t-59.5 9.5t-58 23t-56.5 43.5l106 106q17 -17 35.5 -26t36.5 -13.5t33 -5t26 -0.5q9 0 21 1.5t23 5.5t18.5 10.5t7.5 17.5t-7.5 21.5t-31.5 12.5l-83 8
q-35 3 -63.5 13t-49 29t-32 47t-11.5 67q0 45 18.5 78t48.5 55.5t68.5 33.5t78.5 11q66 0 119 -13t93 -53l-101 -101q-20 20 -51 26t-63 6q-30 0 -41.5 -11t-11.5 -20q0 -2 0.5 -6.5t3.5 -9t10 -9t21 -5.5l83 -8q42 -4 73 -18t50.5 -36t29 -50t9.5 -60z" />
    <glyph glyph-name="guilsinglright" unicode="&#x203a;" horiz-adv-x="363" 
d="M60 9v193l80 78l-80 77v193l273 -270z" />
    <glyph glyph-name="oe" unicode="&#x153;" horiz-adv-x="864" 
d="M664 325q0 10 -2 20.5t-7 21.5q-8 17 -25 29.5t-46 12.5t-46 -12.5t-25 -29.5q-5 -11 -7 -21.5t-2 -20.5h160v0zM343 269q0 40 -4 68t-20 44q-15 15 -44 15t-44 -15q-16 -16 -20 -44t-4 -68t4 -68t20 -44q15 -15 44 -15t44 15q16 16 20 44t4 68zM504 216
q0 -33 24.5 -58.5t70.5 -25.5q43 0 66 11.5t45 33.5l98 -98q-21 -21 -42 -36.5t-45.5 -26.5t-54.5 -16.5t-67 -5.5q-45 0 -90 10.5t-81 39.5q-25 -20 -62 -35t-91 -15q-65 0 -107 21.5t-66 47.5q-17 18 -28.5 38t-18 44t-9.5 54t-3 70q0 39 3 69.5t9.5 54.5t18 44t28.5 38
q12 13 28.5 25t37.5 22t47.5 16t59.5 6q55 0 93 -16t63 -37q61 53 153 53q58 0 103.5 -20t76 -54.5t46.5 -81t16 -99.5v-73h-322z" />
    <glyph glyph-name="zcaron" horiz-adv-x="489" 
d="M308 610h-126l-136 179h120l79 -83l79 83h120zM30 0v121l205 269h-193v148h407v-121l-209 -269h209v-148h-419z" />
    <glyph glyph-name="zcaron" unicode="&#x17e;" horiz-adv-x="489" 
d="M308 610h-126l-136 179h120l79 -83l79 83h120zM30 0v121l205 269h-193v148h407v-121l-209 -269h209v-148h-419z" />
    <glyph glyph-name="Ydieresis" unicode="&#x178;" horiz-adv-x="605" 
d="M348 781v145h134v-145h-134zM122 781v145h134v-145h-134zM390 290v-290h-175v290l-215 422h191l112 -256l111 256h191z" />
    <glyph glyph-name="nonbreakingspace" unicode="&#xa0;" horiz-adv-x="222" 
 />
    <glyph glyph-name="exclamdown" unicode="&#xa1;" horiz-adv-x="366" 
d="M79 377v161h168v-161h-168zM60 -174l44 475h118l44 -475h-206z" />
    <glyph glyph-name="cent" unicode="&#xa2;" horiz-adv-x="499" 
d="M244 482q-3 -2 -6 -4.5t-6 -5.5q-30 -32 -30 -106q0 -38 7.5 -64t21.5 -41l6 -6t7 -5v232zM481 174q-26 -26 -58 -46t-73 -30v-98h-126v98q-38 9 -72 29.5t-59.5 53.5t-40 79t-14.5 106t14.5 106t40 79t59.5 53.5t72 29.5v78h126v-78q41 -10 73 -30t58 -46l-107 -107
q-9 9 -19.5 18t-24.5 15v-236q14 6 24.5 15t19.5 18l107 -107v0z" />
    <glyph glyph-name="sterling" unicode="&#xa3;" horiz-adv-x="597" 
d="M95 0v278h-60v126h60v64q0 63 23 110t60.5 78t86 46.5t98.5 15.5q31 0 57 -4t49.5 -13t44.5 -24t43 -37l-115 -114q-17 17 -33.5 26.5t-45.5 9.5q-41 0 -67 -23.5t-26 -74.5v-60h93v-126h-93v-122h287v-156h-462z" />
    <glyph glyph-name="currency" unicode="&#xa4;" horiz-adv-x="674" 
d="M432 295q0 19 -7.5 36.5t-20.5 30.5t-30.5 20.5t-36.5 7.5q-20 0 -37 -7.5t-30 -20.5t-20.5 -30.5t-7.5 -36.5q0 -20 7.5 -37t20.5 -30t30 -20.5t37 -7.5q19 0 36.5 7.5t30.5 20.5t20.5 30t7.5 37zM518 5l-73 73q-25 -12 -52 -19t-56 -7t-56 7t-52 19l-73 -73l-109 109
l73 73q-12 25 -19 52t-7 56t7 56t19 52l-73 73l109 109l73 -73q25 12 52 19t56 7t56 -7t52 -19l73 73l109 -109l-73 -73q12 -25 19 -52t7 -56t-7 -56t-19 -52l73 -73z" />
    <glyph glyph-name="yen" unicode="&#xa5;" horiz-adv-x="605" 
d="M480 466h60v-126h-125l-25 -50v-50h150v-126h-150v-114h-175v114h-150v126h150v50l-25 50h-125v126h60l-125 246h191l112 -256l111 256h191z" />
    <glyph glyph-name="brokenbar" unicode="&#xa6;" horiz-adv-x="364" 
d="M100 -74v350h164v-350h-164zM100 436v350h164v-350h-164z" />
    <glyph glyph-name="section" unicode="&#xa7;" horiz-adv-x="516" 
d="M319 279q0 24 -7 36t-13 17q-5 5 -15 9t-24 4t-24 -4t-15 -9q-6 -5 -13 -17t-7 -36t7 -36t13 -17q5 -5 15 -9t24 -4t24 4t15 9q6 5 13 17t7 36zM475 285q0 -26 -8.5 -48.5t-21.5 -40.5t-27 -31t-24 -20q13 -8 26 -19t23 -27t16 -37.5t6 -51.5q0 -51 -18.5 -87t-48 -59
t-66.5 -33.5t-73 -10.5t-73 9.5t-66.5 31.5t-48 57.5t-18.5 88.5h156q0 -17 13 -30.5t37 -13.5q25 0 37.5 12.5t12.5 28.5q0 12 -10 28t-49 30l-54 20q-38 14 -66 29.5t-47 37t-28.5 51.5t-9.5 73q0 26 8.5 48.5t21.5 40.5t27.5 31t25.5 20q-12 7 -24 17.5t-21.5 25.5
t-15 35.5t-5.5 47.5q0 32 10.5 64t34.5 57.5t62 41.5t92 16q55 0 93 -15t61.5 -40t34 -57.5t10.5 -68.5h-152q0 23 -14 32.5t-33 9.5q-26 0 -36.5 -11.5t-10.5 -23.5q0 -28 56 -48l54 -20q37 -14 65.5 -29.5t47.5 -37t28.5 -51.5t9.5 -73z" />
    <glyph glyph-name="dieresis" unicode="&#xa8;" horiz-adv-x="500" 
d="M70 609v145h134v-145h-134zM296 609v145h134v-145h-134z" />
    <glyph glyph-name="copyright" unicode="&#xa9;" horiz-adv-x="822" 
d="M552 216q-27 -23 -58.5 -37.5t-73.5 -14.5q-34 0 -66.5 11t-58 34.5t-41 59.5t-15.5 87t15.5 87t41 59.5t58 34.5t66.5 11q42 0 73.5 -14.5t58.5 -37.5l-67 -67q-17 14 -31 20.5t-34 6.5q-35 0 -56.5 -24.5t-21.5 -75.5t21.5 -75.5t56.5 -24.5q20 0 34 6.5t31 20.5
l67 -67v0zM670 356q0 58 -19.5 107t-54.5 84t-82.5 54.5t-102.5 19.5q-56 0 -103 -19.5t-82 -54.5t-54.5 -84t-19.5 -107q0 -59 19.5 -107.5t54.5 -83.5t82 -54.5t103 -19.5q55 0 102.5 19.5t82.5 54.5t54.5 83.5t19.5 107.5zM773 356q0 -75 -28.5 -141t-77.5 -115
t-115 -77.5t-141 -28.5t-141 28.5t-115 77.5t-77.5 115t-28.5 141t28.5 141t77.5 115t115 77.5t141 28.5t141 -28.5t115 -77.5t77.5 -115t28.5 -141z" />
    <glyph glyph-name="ordfeminine" unicode="&#xaa;" horiz-adv-x="457" 
d="M276 456h-66q-20 0 -30 -10t-10 -24t10.5 -24.5t30.5 -10.5t31 2.5t21 12.5q13 13 13 42v12zM279 283v35q-20 -20 -40.5 -29.5t-55.5 -9.5q-32 0 -58 10.5t-44 28.5q-38 38 -38 100q0 24 8.5 47t26.5 40t45.5 27.5t65.5 10.5h87v11q0 29 -15 41.5t-50 12.5
q-26 0 -39 -6.5t-29 -22.5l-82 82q16 16 32.5 27t35 18t40.5 9.5t49 2.5q93 0 141 -38.5t48 -117.5v-279h-128z" />
    <glyph glyph-name="guillemotleft" unicode="&#xab;" horiz-adv-x="672" 
d="M339 280l273 270v-193l-81 -77l81 -78v-193zM30 280l273 270v-193l-79 -77l79 -78v-193z" />
    <glyph glyph-name="logicalnot" unicode="&#xac;" 
d="M359 88v150h-316v154h470v-304h-154z" />
    <glyph glyph-name="registered" unicode="&#xae;" horiz-adv-x="822" 
d="M467 423q0 15 -10.5 26.5t-29.5 11.5h-52v-76h52q19 0 29.5 11.5t10.5 26.5zM463 167l-57 141h-31v-141h-103v378h169q31 0 55.5 -10.5t40.5 -27.5t24.5 -39t8.5 -45q0 -38 -19 -62.5t-42 -35.5l71 -158h-117zM670 356q0 58 -19.5 107t-54.5 84t-82.5 54.5t-102.5 19.5
q-56 0 -103 -19.5t-82 -54.5t-54.5 -84t-19.5 -107q0 -59 19.5 -107.5t54.5 -83.5t82 -54.5t103 -19.5q55 0 102.5 19.5t82.5 54.5t54.5 83.5t19.5 107.5zM773 356q0 -75 -28.5 -141t-77.5 -115t-115 -77.5t-141 -28.5t-141 28.5t-115 77.5t-77.5 115t-28.5 141t28.5 141
t77.5 115t115 77.5t141 28.5t141 -28.5t115 -77.5t77.5 -115t28.5 -141z" />
    <glyph glyph-name="macron" unicode="&#xaf;" horiz-adv-x="500" 
d="M87 639v105h326v-105h-326z" />
    <glyph glyph-name="macron" unicode="&#x2c9;" horiz-adv-x="500" 
d="M87 639v105h326v-105h-326z" />
    <glyph glyph-name="degree" unicode="&#xb0;" horiz-adv-x="486" 
d="M308 534q0 27 -19 46t-46 19t-46 -19t-19 -46t19 -46t46 -19t46 19t19 46zM439 534q0 -41 -15.5 -76.5t-42 -62t-62.5 -42t-76 -15.5q-41 0 -76.5 15.5t-62 42t-42 62t-15.5 76.5q0 40 15.5 76t42 62.5t62 42t76.5 15.5q40 0 76 -15.5t62.5 -42t42 -62.5t15.5 -76z" />
    <glyph glyph-name="plusminus" unicode="&#xb1;" 
d="M49 0v154h458v-154h-458zM355 371v-152h-154v152h-152v154h152v152h154v-152h152v-154h-152z" />
    <glyph glyph-name="twosuperior" unicode="&#xb2;" horiz-adv-x="367" 
d="M40 285v104l151 154q12 12 17 20t5 20q0 13 -7.5 21t-21.5 8q-8 0 -18 -5t-10 -25h-116q0 33 12 58.5t31.5 42t45.5 25t55 8.5q31 0 57 -9t45 -26t30 -42t11 -56q0 -36 -15 -59.5t-44 -51.5l-87 -83h146v-104h-287z" />
    <glyph glyph-name="threesuperior" unicode="&#xb3;" horiz-adv-x="375" 
d="M335 416q0 -35 -12.5 -60.5t-33 -42t-47 -24.5t-55.5 -8q-27 0 -53.5 7.5t-47.5 24t-33.5 43.5t-12.5 65h115q-1 -17 8 -26.5t24 -9.5q32 0 32 35q0 14 -9.5 24t-23.5 10h-16v99h16q17 0 23.5 10.5t6.5 18.5q0 15 -8.5 22.5t-19.5 7.5t-20 -7.5t-8 -23.5h-116q0 31 11 56
t31 42.5t46 27t56 9.5q31 0 57 -10t45 -27t30 -41t11 -52q0 -36 -13.5 -53t-26.5 -27q13 -12 28.5 -32.5t15.5 -57.5z" />
    <glyph glyph-name="acute" unicode="&#xb4;" horiz-adv-x="500" 
d="M291 610h-99l49 180h168z" />
    <glyph glyph-name="mu" unicode="&#xb5;" horiz-adv-x="584" 
d="M362 0v44q-25 -25 -59 -37.5t-66 -12.5h-11v-168h-164v712h164v-322q0 -23 7 -37.5t17.5 -22.5t22 -11t19.5 -3t19.5 3t22 11t17.5 22.5t7 37.5v322h164v-538h-160z" />
    <glyph glyph-name="mu" unicode="&#x3bc;" horiz-adv-x="584" 
d="M362 0v44q-25 -25 -59 -37.5t-66 -12.5h-11v-168h-164v712h164v-322q0 -23 7 -37.5t17.5 -22.5t22 -11t19.5 -3t19.5 3t22 11t17.5 22.5t7 37.5v322h164v-538h-160z" />
    <glyph glyph-name="paragraph" unicode="&#xb6;" horiz-adv-x="707" 
d="M471 -174v730h-90v-730h-164v472q-33 0 -66.5 15.5t-60.5 43t-43.5 65t-16.5 81.5q0 54 18 93.5t50.5 65t76.5 38t96 12.5h364v-886h-164z" />
    <glyph glyph-name="periodcentered" unicode="&#xb7;" horiz-adv-x="294" 
d="M57 205v180h180v-180h-180z" />
    <glyph glyph-name="periodcentered" unicode="&#x22c5;" horiz-adv-x="294" 
d="M57 205v180h180v-180h-180z" />
    <glyph glyph-name="periodcentered" unicode="&#x2219;" horiz-adv-x="294" 
d="M57 205v180h180v-180h-180z" />
    <glyph glyph-name="cedilla" unicode="&#xb8;" horiz-adv-x="500" 
d="M297 -200h-146l67 144h115z" />
    <glyph glyph-name="onesuperior" unicode="&#xb9;" horiz-adv-x="311" 
d="M130 285v297l-95 -82v130l95 82h116v-427h-116z" />
    <glyph glyph-name="ordmasculine" unicode="&#xba;" horiz-adv-x="466" 
d="M287 498q0 32 -3 54.5t-16 35.5q-12 12 -35 12t-35 -12q-13 -13 -16 -35.5t-3 -54.5t3 -54.5t16 -35.5q12 -12 35 -12t35 12q13 13 16 35.5t3 54.5zM419 498q0 -32 -2.5 -56t-8 -43.5t-15 -35t-22.5 -30.5q-19 -20 -52.5 -37.5t-85.5 -17.5t-85.5 17.5t-52.5 37.5
q-14 15 -23 30.5t-14.5 35t-8 43.5t-2.5 56q0 63 10.5 99.5t37.5 65.5q19 20 52.5 37.5t85.5 17.5t85.5 -17.5t52.5 -37.5q27 -29 37.5 -65.5t10.5 -99.5z" />
    <glyph glyph-name="guillemotright" unicode="&#xbb;" horiz-adv-x="672" 
d="M60 9v193l80 78l-80 77v193l273 -270zM369 9v193l79 78l-79 77v193l273 -270z" />
    <glyph glyph-name="onequarter" unicode="&#xbc;" horiz-adv-x="871" 
d="M130 285v297l-95 -82v130l95 82h116v-427h-116zM805 53v-53h-109v53h-179v110l138 264h127l-139 -264h53v37h109v-37h26v-110h-26zM320 0h-126l339 712h126z" />
    <glyph glyph-name="onehalf" unicode="&#xbd;" horiz-adv-x="904" 
d="M130 285v297l-95 -82v130l95 82h116v-427h-116zM577 0v104l151 154q12 12 17 20t5 20q0 13 -7.5 21t-21.5 8q-8 0 -18 -5t-10 -25h-116q0 33 12 58.5t31.5 42t45.5 25t55 8.5q31 0 57 -9t45 -26t30 -42t11 -56q0 -36 -15 -59.5t-44 -51.5l-87 -83h146v-104h-287zM320 0
h-126l339 712h126z" />
    <glyph glyph-name="threequarters" unicode="&#xbe;" horiz-adv-x="891" 
d="M825 53v-53h-109v53h-179v110l138 264h127l-139 -264h53v37h109v-37h26v-110h-26zM335 416q0 -35 -12.5 -60.5t-33 -42t-47 -24.5t-55.5 -8q-27 0 -53.5 7.5t-47.5 24t-33.5 43.5t-12.5 65h115q-1 -17 8 -26.5t24 -9.5q32 0 32 35q0 14 -9.5 24t-23.5 10h-16v99h16
q17 0 23.5 10.5t6.5 18.5q0 15 -8.5 22.5t-19.5 7.5t-20 -7.5t-8 -23.5h-116q0 31 11 56t31 42.5t46 27t56 9.5q31 0 57 -10t45 -27t30 -41t11 -52q0 -36 -13.5 -53t-26.5 -27q13 -12 28.5 -32.5t15.5 -57.5zM340 0h-126l339 712h126z" />
    <glyph glyph-name="questiondown" unicode="&#xbf;" horiz-adv-x="538" 
d="M166 377v161h168v-161h-168zM478 31q0 -51 -18 -90.5t-48.5 -66t-71.5 -40.5t-86 -14q-44 0 -84.5 13.5t-71.5 39.5t-49.5 65.5t-18.5 91.5q0 39 15 70t36 58l69 87q7 8 12.5 21t5.5 26v9h164v-23q0 -34 -9 -59.5t-32 -51.5l-70 -82q-11 -13 -19 -28.5t-8 -27.5
q0 -26 15 -43.5t45 -17.5q32 0 46 18t14 45h164v0z" />
    <glyph glyph-name="Agrave" unicode="&#xc0;" horiz-adv-x="653" 
d="M331 442l-64 -190h124zM285 782l-118 180h168l49 -180h-99zM470 0l-33 106h-219l-35 -106h-183l259 712h135l259 -712h-183z" />
    <glyph glyph-name="Aacute" unicode="&#xc1;" horiz-adv-x="653" 
d="M331 442l-64 -190h124zM367 782h-99l49 180h168zM470 0l-33 106h-219l-35 -106h-183l259 712h135l259 -712h-183z" />
    <glyph glyph-name="Acircumflex" unicode="&#xc2;" horiz-adv-x="653" 
d="M331 442l-64 -190h124zM405 782l-79 83l-79 -83h-120l136 179h126l136 -179h-120zM470 0l-33 106h-219l-35 -106h-183l259 712h135l259 -712h-183z" />
    <glyph glyph-name="Atilde" unicode="&#xc3;" horiz-adv-x="653" 
d="M331 442l-64 -190h124zM519 855q-32 -32 -60 -47.5t-63 -15.5q-23 0 -40.5 4t-40.5 18q-14 8 -27.5 12.5t-28.5 4.5q-14 0 -27 -4.5t-31 -22.5l-68 69q32 32 59.5 47.5t62.5 15.5q23 0 40.5 -4t40.5 -18q14 -8 27 -12.5t28 -4.5q14 0 27 4.5t31 22.5l70 -69v0zM470 0
l-33 106h-219l-35 -106h-183l259 712h135l259 -712h-183z" />
    <glyph glyph-name="Adieresis" unicode="&#xc4;" horiz-adv-x="653" 
d="M331 442l-64 -190h124zM372 781v145h134v-145h-134zM146 781v145h134v-145h-134zM470 0l-33 106h-219l-35 -106h-183l259 712h135l259 -712h-183z" />
    <glyph glyph-name="Aring" unicode="&#xc5;" horiz-adv-x="653" 
d="M378 893q0 21 -15.5 36.5t-36.5 15.5t-36.5 -15.5t-15.5 -36.5t15.5 -36.5t36.5 -15.5t36.5 15.5t15.5 36.5zM331 442l-64 -190h124zM464 893q0 -29 -11 -54t-29.5 -43.5t-44 -29.5t-53.5 -11q-29 0 -54 11t-43.5 29.5t-29.5 43.5t-11 54q0 28 11 53.5t29.5 44t43.5 29.5
t54 11q28 0 53.5 -10.5t44 -29.5t29.5 -44t11 -54zM470 0l-33 106h-219l-35 -106h-183l259 712h135l259 -712h-183z" />
    <glyph glyph-name="AE" unicode="&#xc6;" horiz-adv-x="1013" 
d="M477 556l-136 -261h136v261zM477 0v149h-212l-77 -149h-188l370 712h591v-156h-309v-119h264v-156h-264v-125h309v-156h-484z" />
    <glyph glyph-name="Ccedilla" unicode="&#xc7;" horiz-adv-x="609" 
d="M349 -200h-146l67 144h115zM589 226q-10 -59 -34.5 -102.5t-60 -72.5t-80 -43t-95.5 -14q-63 0 -111 20.5t-87 59.5q-28 28 -43 60.5t-21.5 68.5t-7 74.5t-0.5 78.5t0.5 78.5t7 74.5t21.5 68.5t43 60.5q39 39 87 59.5t111 20.5q51 0 95.5 -14t80 -43t60 -72.5
t34.5 -102.5h-178q-8 30 -28 53t-63 23q-24 0 -41.5 -8.5t-27.5 -21.5q-6 -8 -11 -18t-8.5 -29t-5.5 -49.5t-2 -79.5t2 -79.5t5.5 -49.5t8.5 -29t11 -18q10 -13 27.5 -21.5t41.5 -8.5q43 0 63 23t28 53h178v0z" />
    <glyph glyph-name="Egrave" unicode="&#xc8;" horiz-adv-x="608" 
d="M267 782l-118 180h168l49 -180h-99zM72 0v712h484v-156h-309v-119h264v-156h-264v-125h309v-156h-484z" />
    <glyph glyph-name="Eacute" unicode="&#xc9;" horiz-adv-x="608" 
d="M349 782h-99l49 180h168zM72 0v712h484v-156h-309v-119h264v-156h-264v-125h309v-156h-484z" />
    <glyph glyph-name="Ecircumflex" unicode="&#xca;" horiz-adv-x="608" 
d="M387 782l-79 83l-79 -83h-120l136 179h126l136 -179h-120zM72 0v712h484v-156h-309v-119h264v-156h-264v-125h309v-156h-484z" />
    <glyph glyph-name="Edieresis" unicode="&#xcb;" horiz-adv-x="608" 
d="M354 781v145h134v-145h-134zM128 781v145h134v-145h-134zM72 0v712h484v-156h-309v-119h264v-156h-264v-125h309v-156h-484z" />
    <glyph glyph-name="Igrave" unicode="&#xcc;" horiz-adv-x="319" 
d="M159 782l-118 180h168l49 -180h-99zM72 0v712h175v-712h-175z" />
    <glyph glyph-name="Iacute" unicode="&#xcd;" horiz-adv-x="319" 
d="M201 782h-99l49 180h168zM72 0v712h175v-712h-175z" />
    <glyph glyph-name="Icircumflex" unicode="&#xce;" horiz-adv-x="319" 
d="M240 782l-79 83l-79 -83h-120l136 179h126l136 -179h-120zM72 0v712h175v-712h-175z" />
    <glyph glyph-name="Idieresis" unicode="&#xcf;" horiz-adv-x="319" 
d="M207 781v145h134v-145h-134zM-19 781v145h134v-145h-134zM72 0v712h175v-712h-175z" />
    <glyph glyph-name="Eth" unicode="&#xd0;" horiz-adv-x="679" 
d="M455 356q0 45 -1 73t-3.5 44.5t-6 25.5t-8.5 17q-12 18 -31.5 29t-52.5 11h-77v-129h90v-134h-90v-137h77q33 0 52.5 11t31.5 29q5 7 8.5 16t6 26t3.5 45t1 73zM630 356v-81q0 -38 -6 -73t-21.5 -68t-46.5 -64q-37 -37 -86.5 -53.5t-105.5 -16.5h-264v293h-65v134h65v285
h264q56 0 105.5 -16.5t86.5 -53.5q31 -31 46.5 -64t21.5 -68t6 -74v-80z" />
    <glyph glyph-name="Ntilde" unicode="&#xd1;" horiz-adv-x="700" 
d="M543 855q-32 -32 -60 -47.5t-63 -15.5q-23 0 -40.5 4t-40.5 18q-14 8 -27.5 12.5t-28.5 4.5q-14 0 -27 -4.5t-31 -22.5l-68 69q32 32 59.5 47.5t62.5 15.5q23 0 40.5 -4t40.5 -18q14 -8 27 -12.5t28 -4.5q14 0 27 4.5t31 22.5l70 -69v0zM475 0l-228 358v-358h-175v712
h153l228 -358v358h175v-712h-153z" />
    <glyph glyph-name="Ograve" unicode="&#xd2;" horiz-adv-x="640" 
d="M279 782l-118 180h168l49 -180h-99zM416 356q0 49 -2 79.5t-5 49t-8 28.5t-11 18q-10 13 -28 22t-42 9t-42 -9t-28 -22q-6 -8 -11 -18t-8 -28.5t-5 -49t-2 -79.5t2 -79t5 -48.5t8 -28.5t11 -18q10 -13 28 -22.5t42 -9.5t42 9.5t28 22.5q6 8 11 18t8 28.5t5 48.5t2 79z
M591 356q0 -40 -0.5 -78.5t-7 -74.5t-21.5 -68.5t-43 -60.5q-39 -39 -86 -59.5t-113 -20.5t-113 20.5t-86 59.5q-28 28 -43 60.5t-21.5 68.5t-7 74.5t-0.5 78.5t0.5 78.5t7 74.5t21.5 68.5t43 60.5q39 39 86 59.5t113 20.5t113 -20.5t86 -59.5q28 -28 43 -60.5t21.5 -68.5
t7 -74.5t0.5 -78.5z" />
    <glyph glyph-name="Oacute" unicode="&#xd3;" horiz-adv-x="640" 
d="M361 782h-99l49 180h168zM416 356q0 49 -2 79.5t-5 49t-8 28.5t-11 18q-10 13 -28 22t-42 9t-42 -9t-28 -22q-6 -8 -11 -18t-8 -28.5t-5 -49t-2 -79.5t2 -79t5 -48.5t8 -28.5t11 -18q10 -13 28 -22.5t42 -9.5t42 9.5t28 22.5q6 8 11 18t8 28.5t5 48.5t2 79zM591 356
q0 -40 -0.5 -78.5t-7 -74.5t-21.5 -68.5t-43 -60.5q-39 -39 -86 -59.5t-113 -20.5t-113 20.5t-86 59.5q-28 28 -43 60.5t-21.5 68.5t-7 74.5t-0.5 78.5t0.5 78.5t7 74.5t21.5 68.5t43 60.5q39 39 86 59.5t113 20.5t113 -20.5t86 -59.5q28 -28 43 -60.5t21.5 -68.5t7 -74.5
t0.5 -78.5z" />
    <glyph glyph-name="Ocircumflex" unicode="&#xd4;" horiz-adv-x="640" 
d="M399 782l-79 83l-79 -83h-120l136 179h126l136 -179h-120zM416 356q0 49 -2 79.5t-5 49t-8 28.5t-11 18q-10 13 -28 22t-42 9t-42 -9t-28 -22q-6 -8 -11 -18t-8 -28.5t-5 -49t-2 -79.5t2 -79t5 -48.5t8 -28.5t11 -18q10 -13 28 -22.5t42 -9.5t42 9.5t28 22.5q6 8 11 18
t8 28.5t5 48.5t2 79zM591 356q0 -40 -0.5 -78.5t-7 -74.5t-21.5 -68.5t-43 -60.5q-39 -39 -86 -59.5t-113 -20.5t-113 20.5t-86 59.5q-28 28 -43 60.5t-21.5 68.5t-7 74.5t-0.5 78.5t0.5 78.5t7 74.5t21.5 68.5t43 60.5q39 39 86 59.5t113 20.5t113 -20.5t86 -59.5
q28 -28 43 -60.5t21.5 -68.5t7 -74.5t0.5 -78.5z" />
    <glyph glyph-name="Otilde" unicode="&#xd5;" horiz-adv-x="640" 
d="M513 855q-32 -32 -60 -47.5t-63 -15.5q-23 0 -40.5 4t-40.5 18q-14 8 -27.5 12.5t-28.5 4.5q-14 0 -27 -4.5t-31 -22.5l-68 69q32 32 59.5 47.5t62.5 15.5q23 0 40.5 -4t40.5 -18q14 -8 27 -12.5t28 -4.5q14 0 27 4.5t31 22.5l70 -69v0zM416 356q0 49 -2 79.5t-5 49
t-8 28.5t-11 18q-10 13 -28 22t-42 9t-42 -9t-28 -22q-6 -8 -11 -18t-8 -28.5t-5 -49t-2 -79.5t2 -79t5 -48.5t8 -28.5t11 -18q10 -13 28 -22.5t42 -9.5t42 9.5t28 22.5q6 8 11 18t8 28.5t5 48.5t2 79zM591 356q0 -40 -0.5 -78.5t-7 -74.5t-21.5 -68.5t-43 -60.5
q-39 -39 -86 -59.5t-113 -20.5t-113 20.5t-86 59.5q-28 28 -43 60.5t-21.5 68.5t-7 74.5t-0.5 78.5t0.5 78.5t7 74.5t21.5 68.5t43 60.5q39 39 86 59.5t113 20.5t113 -20.5t86 -59.5q28 -28 43 -60.5t21.5 -68.5t7 -74.5t0.5 -78.5z" />
    <glyph glyph-name="Odieresis" unicode="&#xd6;" horiz-adv-x="640" 
d="M140 781v145h134v-145h-134zM366 781v145h134v-145h-134zM416 356q0 49 -2 79.5t-5 49t-8 28.5t-11 18q-10 13 -28 22t-42 9t-42 -9t-28 -22q-6 -8 -11 -18t-8 -28.5t-5 -49t-2 -79.5t2 -79t5 -48.5t8 -28.5t11 -18q10 -13 28 -22.5t42 -9.5t42 9.5t28 22.5q6 8 11 18
t8 28.5t5 48.5t2 79zM591 356q0 -40 -0.5 -78.5t-7 -74.5t-21.5 -68.5t-43 -60.5q-39 -39 -86 -59.5t-113 -20.5t-113 20.5t-86 59.5q-28 28 -43 60.5t-21.5 68.5t-7 74.5t-0.5 78.5t0.5 78.5t7 74.5t21.5 68.5t43 60.5q39 39 86 59.5t113 20.5t113 -20.5t86 -59.5
q28 -28 43 -60.5t21.5 -68.5t7 -74.5t0.5 -78.5z" />
    <glyph glyph-name="multiply" unicode="&#xd7;" 
d="M413 57l-135 135l-134 -135l-105 104l136 134l-136 135l104 104l134 -135l135 135l105 -104l-136 -135l136 -134z" />
    <glyph glyph-name="Oslash" unicode="&#xd8;" horiz-adv-x="640" 
d="M364 552q-20 10 -44 10t-42 -9t-28 -22q-6 -8 -11 -18t-8 -28.5t-5 -49t-2 -79.5q0 -59 3 -93l137 289v0zM416 356q0 58 -3 93l-137 -288q19 -11 44 -11q24 0 42 9.5t28 22.5q6 8 11 18t8 28.5t5 48.5t2 79zM591 356q0 -40 -0.5 -78.5t-7 -74.5t-21.5 -68.5t-43 -60.5
q-39 -39 -86 -59.5t-113 -20.5q-60 0 -105 18l-27 -56h-118l55 114l-4 4q-28 28 -43 60.5t-21.5 68.5t-7 74.5t-0.5 78.5t0.5 78.5t7 74.5t21.5 68.5t43 60.5q39 39 86 59.5t113 20.5q60 0 105 -18l27 56h118l-55 -114l4 -4q28 -28 43 -60.5t21.5 -68.5t7 -74.5t0.5 -78.5z
" />
    <glyph glyph-name="Ugrave" unicode="&#xd9;" horiz-adv-x="660" 
d="M289 782l-118 180h168l49 -180h-99zM600 250q0 -59 -21.5 -106t-58.5 -80.5t-86.5 -51.5t-104.5 -18q-56 0 -104.5 18t-85.5 51.5t-58 80.5t-21 106v462h175v-458q0 -50 25 -77t69 -27t70 27t26 77v458h175v-462v0z" />
    <glyph glyph-name="Uacute" unicode="&#xda;" horiz-adv-x="660" 
d="M371 782h-99l49 180h168zM600 250q0 -59 -21.5 -106t-58.5 -80.5t-86.5 -51.5t-104.5 -18q-56 0 -104.5 18t-85.5 51.5t-58 80.5t-21 106v462h175v-458q0 -50 25 -77t69 -27t70 27t26 77v458h175v-462v0z" />
    <glyph glyph-name="Ucircumflex" unicode="&#xdb;" horiz-adv-x="660" 
d="M409 782l-79 83l-79 -83h-120l136 179h126l136 -179h-120zM600 250q0 -59 -21.5 -106t-58.5 -80.5t-86.5 -51.5t-104.5 -18q-56 0 -104.5 18t-85.5 51.5t-58 80.5t-21 106v462h175v-458q0 -50 25 -77t69 -27t70 27t26 77v458h175v-462v0z" />
    <glyph glyph-name="Udieresis" unicode="&#xdc;" horiz-adv-x="660" 
d="M376 781v145h134v-145h-134zM150 781v145h134v-145h-134zM600 250q0 -59 -21.5 -106t-58.5 -80.5t-86.5 -51.5t-104.5 -18q-56 0 -104.5 18t-85.5 51.5t-58 80.5t-21 106v462h175v-458q0 -50 25 -77t69 -27t70 27t26 77v458h175v-462v0z" />
    <glyph glyph-name="Yacute" unicode="&#xdd;" horiz-adv-x="605" 
d="M343 782h-99l49 180h168zM390 290v-290h-175v290l-215 422h191l112 -256l111 256h191z" />
    <glyph glyph-name="Thorn" unicode="&#xde;" horiz-adv-x="627" 
d="M422 360q0 28 -20 50t-56 22h-99v-144h99q36 0 56 22t20 50zM597 360q0 -44 -16 -85t-46.5 -73t-76 -51.5t-104.5 -19.5h-107v-131h-175v712h175v-123h107q59 0 104.5 -19.5t76 -51.5t46.5 -73t16 -85z" />
    <glyph glyph-name="germandbls" unicode="&#xdf;" horiz-adv-x="584" 
d="M534 173q0 -85 -42 -128q-22 -22 -55.5 -33.5t-82.5 -11.5h-52v138h19q23 0 35 12q13 12 13 36v129q0 23 -12 35q-12 13 -36 13h-19v126h23q16 0 30 8t14 34q0 18 -12 29q-17 15 -55 15q-44 0 -59.5 -18t-15.5 -52v-505h-165v519q0 55 19 93t51.5 61.5t76 34t93.5 10.5
q51 0 94 -10.5t73.5 -33t47.5 -56.5t17 -81q0 -24 -6 -42t-15 -31t-19.5 -21.5t-20.5 -14.5q23 -11 42 -33.5t19 -69.5v-152v0z" />
    <glyph glyph-name="agrave" unicode="&#xe0;" horiz-adv-x="536" 
d="M319 216h-83q-24 0 -38 -12t-14 -31q0 -18 13.5 -31.5t40.5 -13.5q24 0 37.5 3.5t27.5 16.5q16 15 16 54v14zM225 610l-118 180h168l49 -180h-99zM323 0v44q-25 -25 -51 -37t-69 -12q-41 0 -73.5 12.5t-55.5 35.5t-35 55.5t-12 70.5q0 30 10.5 58.5t33 50t57 34.5
t82.5 13h109v14q0 37 -19 52t-62 15q-32 0 -49 -8t-37 -28l-102 102q21 21 41 34.5t43.5 22t50.5 12t61 3.5q116 0 176.5 -48t60.5 -147v-349h-160z" />
    <glyph glyph-name="aacute" unicode="&#xe1;" horiz-adv-x="536" 
d="M319 216h-83q-24 0 -38 -12t-14 -31q0 -18 13.5 -31.5t40.5 -13.5q24 0 37.5 3.5t27.5 16.5q16 15 16 54v14zM307 610h-99l49 180h168zM323 0v44q-25 -25 -51 -37t-69 -12q-41 0 -73.5 12.5t-55.5 35.5t-35 55.5t-12 70.5q0 30 10.5 58.5t33 50t57 34.5t82.5 13h109v14
q0 37 -19 52t-62 15q-32 0 -49 -8t-37 -28l-102 102q21 21 41 34.5t43.5 22t50.5 12t61 3.5q116 0 176.5 -48t60.5 -147v-349h-160z" />
    <glyph glyph-name="acircumflex" unicode="&#xe2;" horiz-adv-x="536" 
d="M319 216h-83q-24 0 -38 -12t-14 -31q0 -18 13.5 -31.5t40.5 -13.5q24 0 37.5 3.5t27.5 16.5q16 15 16 54v14zM345 610l-79 83l-79 -83h-120l136 179h126l136 -179h-120zM323 0v44q-25 -25 -51 -37t-69 -12q-41 0 -73.5 12.5t-55.5 35.5t-35 55.5t-12 70.5q0 30 10.5 58.5
t33 50t57 34.5t82.5 13h109v14q0 37 -19 52t-62 15q-32 0 -49 -8t-37 -28l-102 102q21 21 41 34.5t43.5 22t50.5 12t61 3.5q116 0 176.5 -48t60.5 -147v-349h-160z" />
    <glyph glyph-name="atilde" unicode="&#xe3;" horiz-adv-x="536" 
d="M319 216h-83q-24 0 -38 -12t-14 -31q0 -18 13.5 -31.5t40.5 -13.5q24 0 37.5 3.5t27.5 16.5q16 15 16 54v14zM459 683q-32 -32 -60 -47.5t-63 -15.5q-23 0 -40.5 4t-40.5 18q-14 8 -27.5 12.5t-28.5 4.5q-14 0 -27 -4.5t-31 -22.5l-68 69q32 32 59.5 47.5t62.5 15.5
q23 0 40.5 -4t40.5 -18q14 -8 27 -12.5t28 -4.5q14 0 27 4.5t31 22.5l70 -69v0zM323 0v44q-25 -25 -51 -37t-69 -12q-41 0 -73.5 12.5t-55.5 35.5t-35 55.5t-12 70.5q0 30 10.5 58.5t33 50t57 34.5t82.5 13h109v14q0 37 -19 52t-62 15q-32 0 -49 -8t-37 -28l-102 102
q21 21 41 34.5t43.5 22t50.5 12t61 3.5q116 0 176.5 -48t60.5 -147v-349h-160z" />
    <glyph glyph-name="adieresis" unicode="&#xe4;" horiz-adv-x="536" 
d="M319 216h-83q-24 0 -38 -12t-14 -31q0 -18 13.5 -31.5t40.5 -13.5q24 0 37.5 3.5t27.5 16.5q16 15 16 54v14zM312 609v145h134v-145h-134zM86 609v145h134v-145h-134zM323 0v44q-25 -25 -51 -37t-69 -12q-41 0 -73.5 12.5t-55.5 35.5t-35 55.5t-12 70.5q0 30 10.5 58.5
t33 50t57 34.5t82.5 13h109v14q0 37 -19 52t-62 15q-32 0 -49 -8t-37 -28l-102 102q21 21 41 34.5t43.5 22t50.5 12t61 3.5q116 0 176.5 -48t60.5 -147v-349h-160z" />
    <glyph glyph-name="aring" unicode="&#xe5;" horiz-adv-x="536" 
d="M318 731q0 21 -15.5 36.5t-36.5 15.5t-36.5 -15.5t-15.5 -36.5t15.5 -36.5t36.5 -15.5t36.5 15.5t15.5 36.5zM319 216h-83q-24 0 -38 -12t-14 -31q0 -18 13.5 -31.5t40.5 -13.5q24 0 37.5 3.5t27.5 16.5q16 15 16 54v14zM404 731q0 -29 -11 -54t-29.5 -43.5t-44 -29.5
t-53.5 -11q-29 0 -54 11t-43.5 29.5t-29.5 43.5t-11 54q0 28 11 53.5t29.5 44t43.5 29.5t54 11q28 0 53.5 -10.5t44 -29.5t29.5 -44t11 -54zM323 0v44q-25 -25 -51 -37t-69 -12q-41 0 -73.5 12.5t-55.5 35.5t-35 55.5t-12 70.5q0 30 10.5 58.5t33 50t57 34.5t82.5 13h109v14
q0 37 -19 52t-62 15q-32 0 -49 -8t-37 -28l-102 102q21 21 41 34.5t43.5 22t50.5 12t61 3.5q116 0 176.5 -48t60.5 -147v-349h-160z" />
    <glyph glyph-name="ae" unicode="&#xe6;" horiz-adv-x="840" 
d="M319 216h-83q-24 0 -38 -12t-14 -31q0 -18 13.5 -31.5t40.5 -13.5q24 0 37.5 3.5t27.5 16.5q16 15 16 54v14zM640 325q0 10 -2 20.5t-7 21.5q-8 17 -25 29.5t-46 12.5t-46 -12.5t-25 -29.5q-5 -11 -7 -21.5t-2 -20.5h160v0zM480 216q0 -33 24.5 -58.5t70.5 -25.5
q43 0 66 11.5t45 33.5l98 -98q-21 -21 -42 -36.5t-45.5 -26.5t-54.5 -16.5t-67 -5.5q-50 0 -100 13.5t-88 51.5q-24 -23 -46.5 -35.5t-45 -19.5t-45 -8.5t-47.5 -1.5q-41 0 -73.5 13t-55.5 36t-35 55.5t-12 70.5q0 30 10.5 58.5t33 50t57 34.5t82.5 13h109v14q0 37 -19 52
t-62 15q-32 0 -49 -8t-37 -28l-102 102q21 21 41 34.5t43.5 22t50.5 12t61 3.5q111 0 170 -45q58 45 144 45q58 0 103.5 -20t76 -54.5t46.5 -81t16 -99.5v-73h-322z" />
    <glyph glyph-name="ccedilla" unicode="&#xe7;" horiz-adv-x="475" 
d="M297 -200h-146l67 144h115zM457 63q-33 -33 -76.5 -51t-100.5 -18q-35 0 -77 10t-79 39.5t-61.5 83.5t-24.5 142t24.5 142t61.5 83.5t79 39.5t77 10q57 0 100.5 -18t76.5 -51l-111 -111q-16 16 -31 24t-35 8q-17 0 -28.5 -5t-22.5 -16q-27 -28 -27 -106t27 -106
q11 -11 22.5 -16t28.5 -5q20 0 35 8t31 24l111 -111v0z" />
    <glyph glyph-name="egrave" unicode="&#xe8;" horiz-adv-x="559" 
d="M359 325q0 10 -2 20.5t-7 21.5q-8 17 -25 29.5t-46 12.5t-46 -12.5t-25 -29.5q-5 -11 -7 -21.5t-2 -20.5h160v0zM242 610l-118 180h168l49 -180h-99zM199 216q0 -33 24.5 -58.5t70.5 -25.5q43 0 66 11.5t45 33.5l98 -98q-21 -21 -42 -36.5t-45.5 -26.5t-54.5 -16.5
t-67 -5.5q-45 0 -90.5 10.5t-82 40t-60 83.5t-23.5 141q0 66 18 117t50 86.5t76 53.5t97 18q58 0 103.5 -20t76 -54.5t46.5 -81t16 -99.5v-73h-322z" />
    <glyph glyph-name="eacute" unicode="&#xe9;" horiz-adv-x="559" 
d="M359 325q0 10 -2 20.5t-7 21.5q-8 17 -25 29.5t-46 12.5t-46 -12.5t-25 -29.5q-5 -11 -7 -21.5t-2 -20.5h160v0zM324 610h-99l49 180h168zM199 216q0 -33 24.5 -58.5t70.5 -25.5q43 0 66 11.5t45 33.5l98 -98q-21 -21 -42 -36.5t-45.5 -26.5t-54.5 -16.5t-67 -5.5
q-45 0 -90.5 10.5t-82 40t-60 83.5t-23.5 141q0 66 18 117t50 86.5t76 53.5t97 18q58 0 103.5 -20t76 -54.5t46.5 -81t16 -99.5v-73h-322z" />
    <glyph glyph-name="ecircumflex" unicode="&#xea;" horiz-adv-x="559" 
d="M359 325q0 10 -2 20.5t-7 21.5q-8 17 -25 29.5t-46 12.5t-46 -12.5t-25 -29.5q-5 -11 -7 -21.5t-2 -20.5h160v0zM362 610l-79 83l-79 -83h-120l136 179h126l136 -179h-120zM199 216q0 -33 24.5 -58.5t70.5 -25.5q43 0 66 11.5t45 33.5l98 -98q-21 -21 -42 -36.5
t-45.5 -26.5t-54.5 -16.5t-67 -5.5q-45 0 -90.5 10.5t-82 40t-60 83.5t-23.5 141q0 66 18 117t50 86.5t76 53.5t97 18q58 0 103.5 -20t76 -54.5t46.5 -81t16 -99.5v-73h-322z" />
    <glyph glyph-name="edieresis" unicode="&#xeb;" horiz-adv-x="559" 
d="M359 325q0 10 -2 20.5t-7 21.5q-8 17 -25 29.5t-46 12.5t-46 -12.5t-25 -29.5q-5 -11 -7 -21.5t-2 -20.5h160v0zM329 609v145h134v-145h-134zM103 609v145h134v-145h-134zM199 216q0 -33 24.5 -58.5t70.5 -25.5q43 0 66 11.5t45 33.5l98 -98q-21 -21 -42 -36.5
t-45.5 -26.5t-54.5 -16.5t-67 -5.5q-45 0 -90.5 10.5t-82 40t-60 83.5t-23.5 141q0 66 18 117t50 86.5t76 53.5t97 18q58 0 103.5 -20t76 -54.5t46.5 -81t16 -99.5v-73h-322z" />
    <glyph glyph-name="igrave" unicode="&#xec;" horiz-adv-x="288" 
d="M139 610l-118 180h168l49 -180h-99zM62 0v538h164v-538h-164z" />
    <glyph glyph-name="iacute" unicode="&#xed;" horiz-adv-x="288" 
d="M167 610h-99l49 180h168zM62 0v538h164v-538h-164z" />
    <glyph glyph-name="icircumflex" unicode="&#xee;" horiz-adv-x="288" 
d="M225 610l-79 83l-79 -83h-120l136 179h126l136 -179h-120zM62 0v538h164v-538h-164z" />
    <glyph glyph-name="idieresis" unicode="&#xef;" horiz-adv-x="288" 
d="M191 609v145h134v-145h-134zM-35 609v145h134v-145h-134zM62 0v538h164v-538h-164z" />
    <glyph glyph-name="ntilde" unicode="&#xf1;" horiz-adv-x="579" 
d="M485 683q-32 -32 -60 -47.5t-63 -15.5q-23 0 -40.5 4t-40.5 18q-14 8 -27.5 12.5t-28.5 4.5q-14 0 -27 -4.5t-31 -22.5l-68 69q32 32 59.5 47.5t62.5 15.5q23 0 40.5 -4t40.5 -18q14 -8 27 -12.5t28 -4.5q14 0 27 4.5t31 22.5l70 -69v0zM358 0v322q0 23 -7 37.5
t-17.5 22.5t-22 11t-19.5 3t-19.5 -3t-22 -11t-17.5 -22.5t-7 -37.5v-322h-164v538h160v-44q25 25 59 37.5t66 12.5q38 0 68.5 -12t52.5 -34q35 -35 44.5 -73t9.5 -81v-344h-164z" />
    <glyph glyph-name="ograve" unicode="&#xf2;" horiz-adv-x="550" 
d="M234 610l-118 180h168l49 -180h-99zM343 269q0 40 -4 68t-20 44q-15 15 -44 15t-44 -15q-16 -16 -20 -44t-4 -68t4 -68t20 -44q15 -15 44 -15t44 15q16 16 20 44t4 68zM507 269q0 -40 -3 -70t-9.5 -54t-18 -44t-28.5 -38q-24 -26 -66 -47.5t-107 -21.5t-107 21.5
t-66 47.5q-17 18 -28.5 38t-18 44t-9.5 54t-3 70q0 39 3 69.5t9.5 54.5t18 44t28.5 38q12 13 28.5 25t37.5 22t47.5 16t59.5 6t59.5 -6t47.5 -16t37.5 -22t28.5 -25q17 -18 28.5 -38t18 -44t9.5 -54.5t3 -69.5z" />
    <glyph glyph-name="oacute" unicode="&#xf3;" horiz-adv-x="550" 
d="M316 610h-99l49 180h168zM343 269q0 40 -4 68t-20 44q-15 15 -44 15t-44 -15q-16 -16 -20 -44t-4 -68t4 -68t20 -44q15 -15 44 -15t44 15q16 16 20 44t4 68zM507 269q0 -40 -3 -70t-9.5 -54t-18 -44t-28.5 -38q-24 -26 -66 -47.5t-107 -21.5t-107 21.5t-66 47.5
q-17 18 -28.5 38t-18 44t-9.5 54t-3 70q0 39 3 69.5t9.5 54.5t18 44t28.5 38q12 13 28.5 25t37.5 22t47.5 16t59.5 6t59.5 -6t47.5 -16t37.5 -22t28.5 -25q17 -18 28.5 -38t18 -44t9.5 -54.5t3 -69.5z" />
    <glyph glyph-name="ocircumflex" unicode="&#xf4;" horiz-adv-x="550" 
d="M343 269q0 40 -4 68t-20 44q-15 15 -44 15t-44 -15q-16 -16 -20 -44t-4 -68t4 -68t20 -44q15 -15 44 -15t44 15q16 16 20 44t4 68zM354 610l-79 83l-79 -83h-120l136 179h126l136 -179h-120zM507 269q0 -40 -3 -70t-9.5 -54t-18 -44t-28.5 -38q-24 -26 -66 -47.5
t-107 -21.5t-107 21.5t-66 47.5q-17 18 -28.5 38t-18 44t-9.5 54t-3 70q0 39 3 69.5t9.5 54.5t18 44t28.5 38q12 13 28.5 25t37.5 22t47.5 16t59.5 6t59.5 -6t47.5 -16t37.5 -22t28.5 -25q17 -18 28.5 -38t18 -44t9.5 -54.5t3 -69.5z" />
    <glyph glyph-name="otilde" unicode="&#xf5;" horiz-adv-x="550" 
d="M343 269q0 40 -4 68t-20 44q-15 15 -44 15t-44 -15q-16 -16 -20 -44t-4 -68t4 -68t20 -44q15 -15 44 -15t44 15q16 16 20 44t4 68zM468 683q-32 -32 -60 -47.5t-63 -15.5q-23 0 -40.5 4t-40.5 18q-14 8 -27.5 12.5t-28.5 4.5q-14 0 -27 -4.5t-31 -22.5l-68 69
q32 32 59.5 47.5t62.5 15.5q23 0 40.5 -4t40.5 -18q14 -8 27 -12.5t28 -4.5q14 0 27 4.5t31 22.5l70 -69v0zM507 269q0 -40 -3 -70t-9.5 -54t-18 -44t-28.5 -38q-24 -26 -66 -47.5t-107 -21.5t-107 21.5t-66 47.5q-17 18 -28.5 38t-18 44t-9.5 54t-3 70q0 39 3 69.5
t9.5 54.5t18 44t28.5 38q12 13 28.5 25t37.5 22t47.5 16t59.5 6t59.5 -6t47.5 -16t37.5 -22t28.5 -25q17 -18 28.5 -38t18 -44t9.5 -54.5t3 -69.5z" />
    <glyph glyph-name="odieresis" unicode="&#xf6;" horiz-adv-x="550" 
d="M95 609v145h134v-145h-134zM321 609v145h134v-145h-134zM343 269q0 40 -4 68t-20 44q-15 15 -44 15t-44 -15q-16 -16 -20 -44t-4 -68t4 -68t20 -44q15 -15 44 -15t44 15q16 16 20 44t4 68zM507 269q0 -40 -3 -70t-9.5 -54t-18 -44t-28.5 -38q-24 -26 -66 -47.5
t-107 -21.5t-107 21.5t-66 47.5q-17 18 -28.5 38t-18 44t-9.5 54t-3 70q0 39 3 69.5t9.5 54.5t18 44t28.5 38q12 13 28.5 25t37.5 22t47.5 16t59.5 6t59.5 -6t47.5 -16t37.5 -22t28.5 -25q17 -18 28.5 -38t18 -44t9.5 -54.5t3 -69.5z" />
    <glyph glyph-name="divide" unicode="&#xf7;" 
d="M200 434v156h156v-156h-156zM200 0v156h156v-156h-156zM43 218v154h470v-154h-470z" />
    <glyph glyph-name="oslash" unicode="&#xf8;" horiz-adv-x="550" 
d="M309 389q-13 7 -34 7q-29 0 -44 -15q-16 -16 -20 -44t-4 -68v-27q0 -12 2 -23l100 170v0zM343 269v26q0 13 -2 24l-100 -170q13 -7 34 -7q29 0 44 15q16 16 20 44t4 68zM507 269q0 -40 -3 -70t-9.5 -54t-18 -44t-28.5 -38q-24 -26 -66 -47.5t-107 -21.5q-32 0 -57.5 5.5
t-46.5 14.5l-34 -58h-93l61 104q-22 23 -34.5 47t-18.5 50t-7.5 53.5t-1.5 58.5q0 39 3 69.5t9.5 54.5t18 44t28.5 38q12 13 28.5 25t37.5 22t47.5 16t59.5 6q32 0 57.5 -5.5t46.5 -14.5l34 58h93l-61 -104q22 -23 34.5 -47t18.5 -50t7.5 -54t1.5 -58z" />
    <glyph glyph-name="ugrave" unicode="&#xf9;" horiz-adv-x="579" 
d="M246 610l-118 180h168l49 -180h-99zM357 0v44q-25 -25 -59 -37.5t-66 -12.5q-38 0 -68.5 12t-52.5 34q-35 35 -44.5 73t-9.5 81v344h164v-322q0 -23 7 -37.5t17.5 -22.5t22 -11t19.5 -3t19.5 3t22 11t17.5 22.5t7 37.5v322h164v-538h-160z" />
    <glyph glyph-name="uacute" unicode="&#xfa;" horiz-adv-x="579" 
d="M328 610h-99l49 180h168zM357 0v44q-25 -25 -59 -37.5t-66 -12.5q-38 0 -68.5 12t-52.5 34q-35 35 -44.5 73t-9.5 81v344h164v-322q0 -23 7 -37.5t17.5 -22.5t22 -11t19.5 -3t19.5 3t22 11t17.5 22.5t7 37.5v322h164v-538h-160z" />
    <glyph glyph-name="ucircumflex" unicode="&#xfb;" horiz-adv-x="579" 
d="M366 610l-79 83l-79 -83h-120l136 179h126l136 -179h-120zM357 0v44q-25 -25 -59 -37.5t-66 -12.5q-38 0 -68.5 12t-52.5 34q-35 35 -44.5 73t-9.5 81v344h164v-322q0 -23 7 -37.5t17.5 -22.5t22 -11t19.5 -3t19.5 3t22 11t17.5 22.5t7 37.5v322h164v-538h-160z" />
    <glyph glyph-name="udieresis" unicode="&#xfc;" horiz-adv-x="579" 
d="M333 609v145h134v-145h-134zM107 609v145h134v-145h-134zM357 0v44q-25 -25 -59 -37.5t-66 -12.5q-38 0 -68.5 12t-52.5 34q-35 35 -44.5 73t-9.5 81v344h164v-322q0 -23 7 -37.5t17.5 -22.5t22 -11t19.5 -3t19.5 3t22 11t17.5 22.5t7 37.5v322h164v-538h-160z" />
    <glyph glyph-name="yacute" unicode="&#xfd;" horiz-adv-x="514" 
d="M298 610h-99l49 180h168zM299 -64q-16 -45 -42 -71q-24 -26 -54.5 -35.5t-66.5 -9.5h-62v148h35q22 0 34.5 7.5t20.5 32.5l15 45l-179 485h172l91 -279l87 279h172z" />
    <glyph glyph-name="thorn" unicode="&#xfe;" horiz-adv-x="571" 
d="M362 269q0 29 -2 52.5t-9 40t-20.5 25.5t-36.5 9t-36.5 -9t-20.5 -25.5t-9 -40t-2 -52.5t2 -52.5t9 -40t20.5 -25.5t36.5 -9t36.5 9t20.5 25.5t9 40t2 52.5zM526 269q0 -30 -0.5 -61.5t-5 -61.5t-14.5 -56.5t-30 -46.5q-23 -23 -57 -36t-73 -13q-40 0 -68.5 11t-51.5 34
v-213h-164v886h164v-213q23 23 51.5 34t68.5 11q39 0 73 -13t57 -36q20 -20 30 -46.5t14.5 -56.5t5 -61.5t0.5 -61.5z" />
    <glyph glyph-name="ydieresis" unicode="&#xff;" horiz-adv-x="514" 
d="M303 609v145h134v-145h-134zM77 609v145h134v-145h-134zM299 -64q-16 -45 -42 -71q-24 -26 -54.5 -35.5t-66.5 -9.5h-62v148h35q22 0 34.5 7.5t20.5 32.5l15 45l-179 485h172l91 -279l87 279h172z" />
    <glyph glyph-name="eth" unicode="&#xf0;" horiz-adv-x="550" 
d="M335 259q0 37 -3.5 63t-17.5 40t-39 14t-39 -14t-17.5 -40t-3.5 -63t3.5 -63t17.5 -40t39 -14t39 14t17.5 40t3.5 63zM499 259q0 -38 -2.5 -67.5t-9.5 -52.5t-18 -42t-27 -37q-23 -25 -63.5 -45.5t-103.5 -20.5t-103.5 20.5t-63.5 45.5q-17 18 -27.5 37t-17.5 42
t-9.5 52.5t-2.5 67.5t2.5 67t9.5 52.5t17.5 42.5t27.5 37q11 12 28.5 24.5t40.5 22.5q17 8 36 12.5t41 5.5l-20 40h-113v114h57l-22 46h176l22 -46h97v-114h-41l26 -57l28 -64.5t20 -56t11.5 -57.5t3.5 -69z" />
    <glyph glyph-name="Lslash" unicode="&#x141;" horiz-adv-x="599" 
d="M95 0v217l-60 -38v146l60 38v349h175v-239l113 71v-145l-113 -71v-172h299v-156h-474z" />
    <glyph glyph-name="lslash" unicode="&#x142;" horiz-adv-x="348" 
d="M241 0q-45 0 -76.5 14.5t-51.5 37.5t-29.5 51t-9.5 56v120l-49 -30v137l49 30v296h164v-198l49 30v-137l-49 -30v-206q0 -33 33 -33h57v-138h-87z" />
    <glyph glyph-name="minus" unicode="&#x2212;" 
d="M49 218v154h458v-154h-458z" />
    <glyph glyph-name="fraction" unicode="&#x2215;" horiz-adv-x="221" 
d="M4 0h-126l339 712h126z" />
    <glyph glyph-name="fi" unicode="&#xfb01;" horiz-adv-x="626" 
d="M400 593v125h164v-125h-164zM400 0v517h164v-517h-164zM238 391v-391h-164v391h-49v126h49v47q0 28 9.5 56t29.5 51t51.5 37.5t76.5 14.5h87v-138h-57q-33 0 -33 -33v-35h90v-126h-90z" />
    <glyph glyph-name="fl" unicode="&#xfb02;" horiz-adv-x="674" 
d="M567 0q-45 0 -76.5 14.5t-51.5 37.5t-29.5 51t-9.5 56v553h164v-541q0 -33 33 -33h57v-138h-87zM238 391v-391h-164v391h-49v126h49v47q0 28 9.5 56t29.5 51t51.5 37.5t76.5 14.5h87v-138h-57q-33 0 -33 -33v-35h90v-126h-90z" />
    <glyph glyph-name="dotlessi" unicode="&#x131;" horiz-adv-x="288" 
d="M62 0v538h164v-538h-164z" />
    <glyph glyph-name="breve" unicode="&#x2d8;" horiz-adv-x="500" 
d="M414 750q-1 -44 -16 -74t-38.5 -48.5t-52 -26.5t-57.5 -8t-58 8t-52 26.5t-38 48.5t-16 74h106q1 -14 6.5 -23t14 -14.5t18.5 -7.5t19 -2t19 2t18 7.5t14 14.5t7 23h106v0z" />
    <glyph glyph-name="dotaccent" unicode="&#x2d9;" horiz-adv-x="500" 
d="M168 593v125h164v-125h-164z" />
    <glyph glyph-name="ring" unicode="&#x2da;" horiz-adv-x="500" 
d="M302 731q0 21 -15.5 36.5t-36.5 15.5t-36.5 -15.5t-15.5 -36.5t15.5 -36.5t36.5 -15.5t36.5 15.5t15.5 36.5zM388 731q0 -29 -11 -54t-29.5 -43.5t-44 -29.5t-53.5 -11q-29 0 -54 11t-43.5 29.5t-29.5 43.5t-11 54q0 28 11 53.5t29.5 44t43.5 29.5t54 11q28 0 53.5 -10.5
t44 -29.5t29.5 -44t11 -54z" />
    <glyph glyph-name="hungarumlaut" unicode="&#x2dd;" horiz-adv-x="500" 
d="M357 610h-99l49 180h168zM125 610h-100l49 180h168z" />
    <glyph glyph-name="ogonek" unicode="&#x2db;" horiz-adv-x="500" 
d="M195 -200l-36 144h115l67 -144h-146z" />
    <glyph glyph-name="caron" unicode="&#x2c7;" horiz-adv-x="500" 
d="M313 610h-126l-136 179h120l79 -83l79 83h120z" />
    </font>
</defs>
</svg>
